<?xml version="1.0" encoding="UTF-8" standalone="no"?>
<!DOCTYPE svg PUBLIC "-//W3C//DTD SVG 1.1//EN"
 "http://www.w3.org/Graphics/SVG/1.1/DTD/svg11.dtd">
<!-- Generated by graphviz version 2.40.1 (20161225.0304)
 -->
<!-- Title: dependencies Pages: 1 -->
<svg width="1216pt" height="211pt"
 viewBox="0.00 0.00 1216.00 211.00" xmlns="http://www.w3.org/2000/svg" xmlns:xlink="http://www.w3.org/1999/xlink">
<g id="graph0" class="graph" transform="scale(1 1) rotate(0) translate(4 207)">
<title>dependencies</title>
<polygon fill="#ffffff" stroke="transparent" points="-4,4 -4,-207 1212,-207 1212,4 -4,4"/>
<text text-anchor="start" x="583.0091" y="-42.4" font-family="sans-serif" font-weight="bold" font-size="14.00" fill="#000000">Legend</text>
<polygon fill="#ffffb3" stroke="transparent" points="370,-10 370,-30 390,-30 390,-10 370,-10"/>
<text text-anchor="start" x="393.629" y="-15.4" font-family="sans-serif" font-size="14.00" fill="#000000"> &#160;Declarations</text>
<polygon fill="#8dd3c7" stroke="transparent" points="483,-10 483,-30 503,-30 503,-10 483,-10"/>
<text text-anchor="start" x="506.7251" y="-15.4" font-family="sans-serif" font-size="14.00" fill="#000000"> &#160;Module</text>
<polygon fill="#80b1d3" stroke="transparent" points="569,-10 569,-30 589,-30 589,-10 569,-10"/>
<text text-anchor="start" x="592.7812" y="-15.4" font-family="sans-serif" font-size="14.00" fill="#000000"> &#160;Bootstrap</text>
<polygon fill="#fdb462" stroke="transparent" points="666,-10 666,-30 686,-30 686,-10 666,-10"/>
<text text-anchor="start" x="689.6732" y="-15.4" font-family="sans-serif" font-size="14.00" fill="#000000"> &#160;Providers</text>
<polygon fill="#fb8072" stroke="transparent" points="762,-10 762,-30 782,-30 782,-10 762,-10"/>
<text text-anchor="start" x="785.7258" y="-15.4" font-family="sans-serif" font-size="14.00" fill="#000000"> &#160;Exports</text>
<g id="clust1" class="cluster">
<title>cluster_DashboardModule</title>
<polygon fill="none" stroke="#000000" stroke-dasharray="1,5" points="8,-70 8,-195 1200,-195 1200,-70 8,-70"/>
</g>
<g id="clust2" class="cluster">
<title>cluster_DashboardModule_declarations</title>
<polygon fill="none" stroke="#000000" points="138,-78 138,-130 1192,-130 1192,-78 138,-78"/>
</g>
<g id="clust9" class="cluster">
<title>cluster_DashboardModule_imports</title>
<polygon fill="none" stroke="#000000" points="16,-78 16,-130 130,-130 130,-78 16,-78"/>
</g>
<!-- DashboardComponent -->
<g id="node1" class="node">
<title>DashboardComponent</title>
<polygon fill="#ffffb3" stroke="#000000" points="1183.9734,-122 1042.0266,-122 1042.0266,-86 1183.9734,-86 1183.9734,-122"/>
<text text-anchor="middle" x="1113" y="-99.8" font-family="Times,serif" font-size="14.00" fill="#000000">DashboardComponent</text>
</g>
<!-- DashboardModule -->
<g id="node7" class="node">
<title>DashboardModule</title>
<polygon fill="#8dd3c7" stroke="#000000" points="654.191,-187 651.191,-191 630.191,-191 627.191,-187 533.809,-187 533.809,-151 654.191,-151 654.191,-187"/>
<text text-anchor="middle" x="594" y="-164.8" font-family="Times,serif" font-size="14.00" fill="#000000">DashboardModule</text>
</g>
<!-- DashboardComponent&#45;&gt;DashboardModule -->
<g id="edge1" class="edge">
<title>DashboardComponent&#45;&gt;DashboardModule</title>
<path fill="none" stroke="#000000" d="M1113,-122.2921C1113,-144.2057 1113,-178 1113,-178 1113,-178 664.2971,-178 664.2971,-178"/>
<polygon fill="#000000" stroke="#000000" points="664.2971,-174.5001 654.2971,-178 664.297,-181.5001 664.2971,-174.5001"/>
</g>
<!-- StatusCardComponent -->
<g id="node2" class="node">
<title>StatusCardComponent</title>
<polygon fill="#ffffb3" stroke="#000000" points="1024.2674,-122 881.7326,-122 881.7326,-86 1024.2674,-86 1024.2674,-122"/>
<text text-anchor="middle" x="953" y="-99.8" font-family="Times,serif" font-size="14.00" fill="#000000">StatusCardComponent</text>
</g>
<!-- StatusCardComponent&#45;&gt;DashboardModule -->
<g id="edge2" class="edge">
<title>StatusCardComponent&#45;&gt;DashboardModule</title>
<path fill="none" stroke="#000000" d="M953,-122.1061C953,-141.3391 953,-169 953,-169 953,-169 664.4935,-169 664.4935,-169"/>
<polygon fill="#000000" stroke="#000000" points="664.4935,-165.5001 654.4935,-169 664.4935,-172.5001 664.4935,-165.5001"/>
</g>
<!-- ProfilePreviewComponent -->
<g id="node3" class="node">
<title>ProfilePreviewComponent</title>
<polygon fill="#ffffb3" stroke="#000000" points="863.8019,-122 698.1981,-122 698.1981,-86 863.8019,-86 863.8019,-122"/>
<text text-anchor="middle" x="781" y="-99.8" font-family="Times,serif" font-size="14.00" fill="#000000">ProfilePreviewComponent</text>
</g>
<!-- ProfilePreviewComponent&#45;&gt;DashboardModule -->
<g id="edge3" class="edge">
<title>ProfilePreviewComponent&#45;&gt;DashboardModule</title>
<path fill="none" stroke="#000000" d="M781,-122.027C781,-138.3976 781,-160 781,-160 781,-160 664.1973,-160 664.1973,-160"/>
<polygon fill="#000000" stroke="#000000" points="664.1973,-156.5001 654.1973,-160 664.1973,-163.5001 664.1973,-156.5001"/>
</g>
<!-- PreviousClassesComponent -->
<g id="node4" class="node">
<title>PreviousClassesComponent</title>
<polygon fill="#ffffb3" stroke="#000000" points="680.3159,-122 507.6841,-122 507.6841,-86 680.3159,-86 680.3159,-122"/>
<text text-anchor="middle" x="594" y="-99.8" font-family="Times,serif" font-size="14.00" fill="#000000">PreviousClassesComponent</text>
</g>
<!-- PreviousClassesComponent&#45;&gt;DashboardModule -->
<g id="edge4" class="edge">
<title>PreviousClassesComponent&#45;&gt;DashboardModule</title>
<path fill="none" stroke="#000000" d="M594,-122.1061C594,-122.1061 594,-140.991 594,-140.991"/>
<polygon fill="#000000" stroke="#000000" points="590.5001,-140.9909 594,-150.991 597.5001,-140.991 590.5001,-140.9909"/>
</g>
<!-- CurrentClassesComponent -->
<g id="node5" class="node">
<title>CurrentClassesComponent</title>
<polygon fill="#ffffb3" stroke="#000000" points="490.0856,-122 323.9144,-122 323.9144,-86 490.0856,-86 490.0856,-122"/>
<text text-anchor="middle" x="407" y="-99.8" font-family="Times,serif" font-size="14.00" fill="#000000">CurrentClassesComponent</text>
</g>
<!-- CurrentClassesComponent&#45;&gt;DashboardModule -->
<g id="edge5" class="edge">
<title>CurrentClassesComponent&#45;&gt;DashboardModule</title>
<path fill="none" stroke="#000000" d="M407,-122.027C407,-138.3976 407,-160 407,-160 407,-160 523.8027,-160 523.8027,-160"/>
<polygon fill="#000000" stroke="#000000" points="523.8027,-163.5001 533.8027,-160 523.8027,-156.5001 523.8027,-163.5001"/>
</g>
<!-- FutureClassesComponent -->
<g id="node6" class="node">
<title>FutureClassesComponent</title>
<polygon fill="#ffffb3" stroke="#000000" points="305.8711,-122 146.1289,-122 146.1289,-86 305.8711,-86 305.8711,-122"/>
<text text-anchor="middle" x="226" y="-99.8" font-family="Times,serif" font-size="14.00" fill="#000000">FutureClassesComponent</text>
</g>
<!-- FutureClassesComponent&#45;&gt;DashboardModule -->
<g id="edge6" class="edge">
<title>FutureClassesComponent&#45;&gt;DashboardModule</title>
<path fill="none" stroke="#000000" d="M226,-122.1061C226,-141.3391 226,-169 226,-169 226,-169 523.6444,-169 523.6444,-169"/>
<polygon fill="#000000" stroke="#000000" points="523.6444,-172.5001 533.6444,-169 523.6443,-165.5001 523.6444,-172.5001"/>
</g>
<!-- ThemeModule -->
<g id="node8" class="node">
<title>ThemeModule</title>
<polygon fill="#8dd3c7" stroke="#000000" points="122.4231,-122 119.4231,-126 98.4231,-126 95.4231,-122 23.5769,-122 23.5769,-86 122.4231,-86 122.4231,-122"/>
<text text-anchor="middle" x="73" y="-99.8" font-family="Times,serif" font-size="14.00" fill="#000000">ThemeModule</text>
</g>
<!-- ThemeModule&#45;&gt;DashboardModule -->
<g id="edge7" class="edge">
<title>ThemeModule&#45;&gt;DashboardModule</title>
<path fill="none" stroke="#000000" d="M73,-122.2921C73,-144.2057 73,-178 73,-178 73,-178 523.7257,-178 523.7257,-178"/>
<polygon fill="#000000" stroke="#000000" points="523.7257,-181.5001 533.7257,-178 523.7257,-174.5001 523.7257,-181.5001"/>
</g>
</g>
</svg>
