<?xml version="1.0" encoding="UTF-8" standalone="no"?>
<!DOCTYPE svg PUBLIC "-//W3C//DTD SVG 1.1//EN"
 "http://www.w3.org/Graphics/SVG/1.1/DTD/svg11.dtd">
<!-- Generated by graphviz version 2.40.1 (20161225.0304)
 -->
<!-- Title: dependencies Pages: 1 -->
<svg width="1537pt" height="211pt"
 viewBox="0.00 0.00 1537.00 211.00" xmlns="http://www.w3.org/2000/svg" xmlns:xlink="http://www.w3.org/1999/xlink">
<g id="graph0" class="graph" transform="scale(1 1) rotate(0) translate(4 207)">
<title>dependencies</title>
<polygon fill="#ffffff" stroke="transparent" points="-4,4 -4,-207 1533,-207 1533,4 -4,4"/>
<text text-anchor="start" x="743.5091" y="-42.4" font-family="sans-serif" font-weight="bold" font-size="14.00" fill="#000000">Legend</text>
<polygon fill="#ffffb3" stroke="transparent" points="530.5,-10 530.5,-30 550.5,-30 550.5,-10 530.5,-10"/>
<text text-anchor="start" x="554.129" y="-15.4" font-family="sans-serif" font-size="14.00" fill="#000000"> &#160;Declarations</text>
<polygon fill="#8dd3c7" stroke="transparent" points="643.5,-10 643.5,-30 663.5,-30 663.5,-10 643.5,-10"/>
<text text-anchor="start" x="667.2251" y="-15.4" font-family="sans-serif" font-size="14.00" fill="#000000"> &#160;Module</text>
<polygon fill="#80b1d3" stroke="transparent" points="729.5,-10 729.5,-30 749.5,-30 749.5,-10 729.5,-10"/>
<text text-anchor="start" x="753.2812" y="-15.4" font-family="sans-serif" font-size="14.00" fill="#000000"> &#160;Bootstrap</text>
<polygon fill="#fdb462" stroke="transparent" points="826.5,-10 826.5,-30 846.5,-30 846.5,-10 826.5,-10"/>
<text text-anchor="start" x="850.1732" y="-15.4" font-family="sans-serif" font-size="14.00" fill="#000000"> &#160;Providers</text>
<polygon fill="#fb8072" stroke="transparent" points="922.5,-10 922.5,-30 942.5,-30 942.5,-10 922.5,-10"/>
<text text-anchor="start" x="946.2258" y="-15.4" font-family="sans-serif" font-size="14.00" fill="#000000"> &#160;Exports</text>
<g id="clust1" class="cluster">
<title>cluster_DashboardModule</title>
<polygon fill="none" stroke="#000000" stroke-dasharray="1,5" points="8,-70 8,-195 1521,-195 1521,-70 8,-70"/>
</g>
<g id="clust2" class="cluster">
<title>cluster_DashboardModule_declarations</title>
<polygon fill="none" stroke="#000000" points="138,-78 138,-130 1513,-130 1513,-78 138,-78"/>
</g>
<g id="clust11" class="cluster">
<title>cluster_DashboardModule_imports</title>
<polygon fill="none" stroke="#000000" points="16,-78 16,-130 130,-130 130,-78 16,-78"/>
</g>
<!-- DashboardComponent -->
<g id="node1" class="node">
<title>DashboardComponent</title>
<polygon fill="#ffffb3" stroke="#000000" points="1504.9734,-122 1363.0266,-122 1363.0266,-86 1504.9734,-86 1504.9734,-122"/>
<text text-anchor="middle" x="1434" y="-99.8" font-family="Times,serif" font-size="14.00" fill="#000000">DashboardComponent</text>
</g>
<!-- DashboardModule -->
<g id="node9" class="node">
<title>DashboardModule</title>
<polygon fill="#8dd3c7" stroke="#000000" points="788.191,-187 785.191,-191 764.191,-191 761.191,-187 667.809,-187 667.809,-151 788.191,-151 788.191,-187"/>
<text text-anchor="middle" x="728" y="-164.8" font-family="Times,serif" font-size="14.00" fill="#000000">DashboardModule</text>
</g>
<!-- DashboardComponent&#45;&gt;DashboardModule -->
<g id="edge1" class="edge">
<title>DashboardComponent&#45;&gt;DashboardModule</title>
<path fill="none" stroke="#000000" d="M1434,-122.0109C1434,-144.4852 1434,-180 1434,-180 1434,-180 798.1932,-180 798.1932,-180"/>
<polygon fill="#000000" stroke="#000000" points="798.1932,-176.5001 788.1932,-180 798.1931,-183.5001 798.1932,-176.5001"/>
</g>
<!-- StatusCardComponent -->
<g id="node2" class="node">
<title>StatusCardComponent</title>
<polygon fill="#ffffb3" stroke="#000000" points="1345.2674,-122 1202.7326,-122 1202.7326,-86 1345.2674,-86 1345.2674,-122"/>
<text text-anchor="middle" x="1274" y="-99.8" font-family="Times,serif" font-size="14.00" fill="#000000">StatusCardComponent</text>
</g>
<!-- StatusCardComponent&#45;&gt;DashboardModule -->
<g id="edge2" class="edge">
<title>StatusCardComponent&#45;&gt;DashboardModule</title>
<path fill="none" stroke="#000000" d="M1274,-122.1289C1274,-142.5724 1274,-173 1274,-173 1274,-173 798.2553,-173 798.2553,-173"/>
<polygon fill="#000000" stroke="#000000" points="798.2554,-169.5001 788.2553,-173 798.2553,-176.5001 798.2554,-169.5001"/>
</g>
<!-- ProfilePreviewComponent -->
<g id="node3" class="node">
<title>ProfilePreviewComponent</title>
<polygon fill="#ffffb3" stroke="#000000" points="1184.8019,-122 1019.1981,-122 1019.1981,-86 1184.8019,-86 1184.8019,-122"/>
<text text-anchor="middle" x="1102" y="-99.8" font-family="Times,serif" font-size="14.00" fill="#000000">ProfilePreviewComponent</text>
</g>
<!-- ProfilePreviewComponent&#45;&gt;DashboardModule -->
<g id="edge3" class="edge">
<title>ProfilePreviewComponent&#45;&gt;DashboardModule</title>
<path fill="none" stroke="#000000" d="M1102,-122.2667C1102,-140.5552 1102,-166 1102,-166 1102,-166 798.5052,-166 798.5052,-166"/>
<polygon fill="#000000" stroke="#000000" points="798.5053,-162.5001 788.5052,-166 798.5052,-169.5001 798.5053,-162.5001"/>
</g>
<!-- PreviousClassesComponent -->
<g id="node4" class="node">
<title>PreviousClassesComponent</title>
<polygon fill="#ffffb3" stroke="#000000" points="1001.3159,-122 828.6841,-122 828.6841,-86 1001.3159,-86 1001.3159,-122"/>
<text text-anchor="middle" x="915" y="-99.8" font-family="Times,serif" font-size="14.00" fill="#000000">PreviousClassesComponent</text>
</g>
<!-- PreviousClassesComponent&#45;&gt;DashboardModule -->
<g id="edge4" class="edge">
<title>PreviousClassesComponent&#45;&gt;DashboardModule</title>
<path fill="none" stroke="#000000" d="M915,-122.0091C915,-138.0494 915,-159 915,-159 915,-159 798.1973,-159 798.1973,-159"/>
<polygon fill="#000000" stroke="#000000" points="798.1973,-155.5001 788.1973,-159 798.1973,-162.5001 798.1973,-155.5001"/>
</g>
<!-- CurrentClassesComponent -->
<g id="node5" class="node">
<title>CurrentClassesComponent</title>
<polygon fill="#ffffb3" stroke="#000000" points="811.0856,-122 644.9144,-122 644.9144,-86 811.0856,-86 811.0856,-122"/>
<text text-anchor="middle" x="728" y="-99.8" font-family="Times,serif" font-size="14.00" fill="#000000">CurrentClassesComponent</text>
</g>
<!-- CurrentClassesComponent&#45;&gt;DashboardModule -->
<g id="edge5" class="edge">
<title>CurrentClassesComponent&#45;&gt;DashboardModule</title>
<path fill="none" stroke="#000000" d="M728,-122.1061C728,-122.1061 728,-140.991 728,-140.991"/>
<polygon fill="#000000" stroke="#000000" points="724.5001,-140.9909 728,-150.991 731.5001,-140.991 724.5001,-140.9909"/>
</g>
<!-- FutureClassesComponent -->
<g id="node6" class="node">
<title>FutureClassesComponent</title>
<polygon fill="#ffffb3" stroke="#000000" points="626.8711,-122 467.1289,-122 467.1289,-86 626.8711,-86 626.8711,-122"/>
<text text-anchor="middle" x="547" y="-99.8" font-family="Times,serif" font-size="14.00" fill="#000000">FutureClassesComponent</text>
</g>
<!-- FutureClassesComponent&#45;&gt;DashboardModule -->
<g id="edge6" class="edge">
<title>FutureClassesComponent&#45;&gt;DashboardModule</title>
<path fill="none" stroke="#000000" d="M547,-122.0091C547,-138.0494 547,-159 547,-159 547,-159 657.7296,-159 657.7296,-159"/>
<polygon fill="#000000" stroke="#000000" points="657.7297,-162.5001 667.7296,-159 657.7296,-155.5001 657.7297,-162.5001"/>
</g>
<!-- UnderlingsComponent -->
<g id="node7" class="node">
<title>UnderlingsComponent</title>
<polygon fill="#ffffb3" stroke="#000000" points="448.5407,-122 305.4593,-122 305.4593,-86 448.5407,-86 448.5407,-122"/>
<text text-anchor="middle" x="377" y="-99.8" font-family="Times,serif" font-size="14.00" fill="#000000">UnderlingsComponent</text>
</g>
<!-- UnderlingsComponent&#45;&gt;DashboardModule -->
<g id="edge7" class="edge">
<title>UnderlingsComponent&#45;&gt;DashboardModule</title>
<path fill="none" stroke="#000000" d="M377,-122.2667C377,-140.5552 377,-166 377,-166 377,-166 657.6609,-166 657.6609,-166"/>
<polygon fill="#000000" stroke="#000000" points="657.661,-169.5001 667.6609,-166 657.6609,-162.5001 657.661,-169.5001"/>
</g>
<!-- StudentlistComponent -->
<g id="node8" class="node">
<title>StudentlistComponent</title>
<polygon fill="#ffffb3" stroke="#000000" points="287.7274,-122 146.2726,-122 146.2726,-86 287.7274,-86 287.7274,-122"/>
<text text-anchor="middle" x="217" y="-99.8" font-family="Times,serif" font-size="14.00" fill="#000000">StudentlistComponent</text>
</g>
<!-- StudentlistComponent&#45;&gt;DashboardModule -->
<g id="edge8" class="edge">
<title>StudentlistComponent&#45;&gt;DashboardModule</title>
<path fill="none" stroke="#000000" d="M217,-122.1289C217,-142.5724 217,-173 217,-173 217,-173 657.8792,-173 657.8792,-173"/>
<polygon fill="#000000" stroke="#000000" points="657.8792,-176.5001 667.8792,-173 657.8791,-169.5001 657.8792,-176.5001"/>
</g>
<!-- ThemeModule -->
<g id="node10" class="node">
<title>ThemeModule</title>
<polygon fill="#8dd3c7" stroke="#000000" points="122.4231,-122 119.4231,-126 98.4231,-126 95.4231,-122 23.5769,-122 23.5769,-86 122.4231,-86 122.4231,-122"/>
<text text-anchor="middle" x="73" y="-99.8" font-family="Times,serif" font-size="14.00" fill="#000000">ThemeModule</text>
</g>
<!-- ThemeModule&#45;&gt;DashboardModule -->
<g id="edge9" class="edge">
<title>ThemeModule&#45;&gt;DashboardModule</title>
<path fill="none" stroke="#000000" d="M73,-122.0109C73,-144.4852 73,-180 73,-180 73,-180 657.8453,-180 657.8453,-180"/>
<polygon fill="#000000" stroke="#000000" points="657.8453,-183.5001 667.8453,-180 657.8452,-176.5001 657.8453,-183.5001"/>
</g>
</g>
</svg>
