<?xml version="1.0" encoding="UTF-8" standalone="no"?>
<!DOCTYPE svg PUBLIC "-//W3C//DTD SVG 1.1//EN"
 "http://www.w3.org/Graphics/SVG/1.1/DTD/svg11.dtd">
<!-- Generated by graphviz version 2.40.1 (20161225.0304)
 -->
<!-- Title: dependencies Pages: 1 -->
<svg width="1828pt" height="284pt"
 viewBox="0.00 0.00 1828.00 284.00" xmlns="http://www.w3.org/2000/svg" xmlns:xlink="http://www.w3.org/1999/xlink">
<g id="graph0" class="graph" transform="scale(1 1) rotate(0) translate(4 280)">
<title>dependencies</title>
<polygon fill="#ffffff" stroke="transparent" points="-4,4 -4,-280 1824,-280 1824,4 -4,4"/>
<text text-anchor="start" x="889.0091" y="-42.4" font-family="sans-serif" font-weight="bold" font-size="14.00" fill="#000000">Legend</text>
<polygon fill="#ffffb3" stroke="transparent" points="676,-10 676,-30 696,-30 696,-10 676,-10"/>
<text text-anchor="start" x="699.629" y="-15.4" font-family="sans-serif" font-size="14.00" fill="#000000"> &#160;Declarations</text>
<polygon fill="#8dd3c7" stroke="transparent" points="789,-10 789,-30 809,-30 809,-10 789,-10"/>
<text text-anchor="start" x="812.7251" y="-15.4" font-family="sans-serif" font-size="14.00" fill="#000000"> &#160;Module</text>
<polygon fill="#80b1d3" stroke="transparent" points="875,-10 875,-30 895,-30 895,-10 875,-10"/>
<text text-anchor="start" x="898.7812" y="-15.4" font-family="sans-serif" font-size="14.00" fill="#000000"> &#160;Bootstrap</text>
<polygon fill="#fdb462" stroke="transparent" points="972,-10 972,-30 992,-30 992,-10 972,-10"/>
<text text-anchor="start" x="995.6732" y="-15.4" font-family="sans-serif" font-size="14.00" fill="#000000"> &#160;Providers</text>
<polygon fill="#fb8072" stroke="transparent" points="1068,-10 1068,-30 1088,-30 1088,-10 1068,-10"/>
<text text-anchor="start" x="1091.7258" y="-15.4" font-family="sans-serif" font-size="14.00" fill="#000000"> &#160;Exports</text>
<g id="clust1" class="cluster">
<title>cluster_AppModule</title>
<polygon fill="none" stroke="#000000" stroke-dasharray="1,5" points="8,-70 8,-268 1812,-268 1812,-70 8,-70"/>
</g>
<g id="clust2" class="cluster">
<title>cluster_AppModule_declarations</title>
<polygon fill="none" stroke="#000000" points="1682,-78 1682,-130 1804,-130 1804,-78 1682,-78"/>
</g>
<g id="clust4" class="cluster">
<title>cluster_AppModule_imports</title>
<polygon fill="none" stroke="#000000" points="1530,-78 1530,-130 1674,-130 1674,-78 1530,-78"/>
</g>
<g id="clust6" class="cluster">
<title>cluster_AppModule_bootstrap</title>
<polygon fill="none" stroke="#000000" points="784,-208 784,-260 908,-260 908,-208 784,-208"/>
</g>
<g id="clust7" class="cluster">
<title>cluster_AppModule_providers</title>
<polygon fill="none" stroke="#000000" points="16,-78 16,-130 1522,-130 1522,-78 16,-78"/>
</g>
<!-- AppComponent -->
<g id="node1" class="node">
<title>AppComponent</title>
<polygon fill="#ffffb3" stroke="#000000" points="1795.9399,-122 1690.0601,-122 1690.0601,-86 1795.9399,-86 1795.9399,-122"/>
<text text-anchor="middle" x="1743" y="-99.8" font-family="Times,serif" font-size="14.00" fill="#000000">AppComponent</text>
</g>
<!-- AppModule -->
<g id="node2" class="node">
<title>AppModule</title>
<polygon fill="#8dd3c7" stroke="#000000" points="887.6571,-187 884.6571,-191 863.6571,-191 860.6571,-187 804.3429,-187 804.3429,-151 887.6571,-151 887.6571,-187"/>
<text text-anchor="middle" x="846" y="-164.8" font-family="Times,serif" font-size="14.00" fill="#000000">AppModule</text>
</g>
<!-- AppComponent&#45;&gt;AppModule -->
<g id="edge1" class="edge">
<title>AppComponent&#45;&gt;AppModule</title>
<path fill="none" stroke="#000000" d="M1743,-122.2479C1743,-145.0179 1743,-181 1743,-181 1743,-181 897.7626,-181 897.7626,-181"/>
<polygon fill="#000000" stroke="#000000" points="897.7627,-177.5001 887.7626,-181 897.7626,-184.5001 897.7627,-177.5001"/>
</g>
<!-- AppComponent  -->
<g id="node4" class="node">
<title>AppComponent </title>
<polygon fill="#80b1d3" stroke="#000000" points="900.439,-252 791.561,-252 791.561,-216 900.439,-216 900.439,-252"/>
<text text-anchor="middle" x="846" y="-229.8" font-family="Times,serif" font-size="14.00" fill="#000000">AppComponent </text>
</g>
<!-- AppModule&#45;&gt;AppComponent  -->
<g id="edge3" class="edge">
<title>AppModule&#45;&gt;AppComponent </title>
<path fill="none" stroke="#000000" stroke-dasharray="1,5" d="M846,-187.1061C846,-187.1061 846,-205.991 846,-205.991"/>
<polygon fill="#000000" stroke="#000000" points="842.5001,-205.9909 846,-215.991 849.5001,-205.991 842.5001,-205.9909"/>
</g>
<!-- AppRoutingModule -->
<g id="node3" class="node">
<title>AppRoutingModule</title>
<polygon fill="#8dd3c7" stroke="#000000" points="1666.2744,-122 1663.2744,-126 1642.2744,-126 1639.2744,-122 1537.7256,-122 1537.7256,-86 1666.2744,-86 1666.2744,-122"/>
<text text-anchor="middle" x="1602" y="-99.8" font-family="Times,serif" font-size="14.00" fill="#000000">AppRoutingModule</text>
</g>
<!-- AppRoutingModule&#45;&gt;AppModule -->
<g id="edge2" class="edge">
<title>AppRoutingModule&#45;&gt;AppModule</title>
<path fill="none" stroke="#000000" d="M1602,-122.2843C1602,-143.3211 1602,-175 1602,-175 1602,-175 897.7227,-175 897.7227,-175"/>
<polygon fill="#000000" stroke="#000000" points="897.7227,-171.5001 887.7227,-175 897.7227,-178.5001 897.7227,-171.5001"/>
</g>
<!-- UserService -->
<g id="node5" class="node">
<title>UserService</title>
<ellipse fill="#fdb462" stroke="#000000" cx="1456" cy="-104" rx="58.4415" ry="18"/>
<text text-anchor="middle" x="1456" y="-99.8" font-family="Times,serif" font-size="14.00" fill="#000000">UserService</text>
</g>
<!-- UserService&#45;&gt;AppModule -->
<g id="edge4" class="edge">
<title>UserService&#45;&gt;AppModule</title>
<path fill="none" stroke="#000000" d="M1456,-122.1061C1456,-141.3391 1456,-169 1456,-169 1456,-169 897.9278,-169 897.9278,-169"/>
<polygon fill="#000000" stroke="#000000" points="897.9278,-165.5001 887.9278,-169 897.9277,-172.5001 897.9278,-165.5001"/>
</g>
<!-- ClassService -->
<g id="node6" class="node">
<title>ClassService</title>
<ellipse fill="#fdb462" stroke="#000000" cx="1319" cy="-104" rx="60.8274" ry="18"/>
<text text-anchor="middle" x="1319" y="-99.8" font-family="Times,serif" font-size="14.00" fill="#000000">ClassService</text>
</g>
<!-- ClassService&#45;&gt;AppModule -->
<g id="edge5" class="edge">
<title>ClassService&#45;&gt;AppModule</title>
<path fill="none" stroke="#000000" d="M1319,-122.0225C1319,-139.3734 1319,-163 1319,-163 1319,-163 897.9756,-163 897.9756,-163"/>
<polygon fill="#000000" stroke="#000000" points="897.9756,-159.5001 887.9756,-163 897.9756,-166.5001 897.9756,-159.5001"/>
</g>
<!-- AppointmentService -->
<g id="node7" class="node">
<title>AppointmentService</title>
<ellipse fill="#fdb462" stroke="#000000" cx="1149" cy="-104" rx="90.9109" ry="18"/>
<text text-anchor="middle" x="1149" y="-99.8" font-family="Times,serif" font-size="14.00" fill="#000000">AppointmentService</text>
</g>
<!-- AppointmentService&#45;&gt;AppModule -->
<g id="edge6" class="edge">
<title>AppointmentService&#45;&gt;AppModule</title>
<path fill="none" stroke="#000000" d="M1149,-122.2396C1149,-137.5706 1149,-157 1149,-157 1149,-157 897.8127,-157 897.8127,-157"/>
<polygon fill="#000000" stroke="#000000" points="897.8128,-153.5001 887.8127,-157 897.8127,-160.5001 897.8128,-153.5001"/>
</g>
<!-- AuthenticationService -->
<g id="node8" class="node">
<title>AuthenticationService</title>
<ellipse fill="#fdb462" stroke="#000000" cx="943" cy="-104" rx="97.2683" ry="18"/>
<text text-anchor="middle" x="943" y="-99.8" font-family="Times,serif" font-size="14.00" fill="#000000">AuthenticationService</text>
</g>
<!-- AuthenticationService&#45;&gt;AppModule -->
<g id="edge7" class="edge">
<title>AuthenticationService&#45;&gt;AppModule</title>
<path fill="none" stroke="#000000" d="M866.7221,-115.3221C866.7221,-115.3221 866.7221,-140.9424 866.7221,-140.9424"/>
<polygon fill="#000000" stroke="#000000" points="863.2222,-140.9424 866.7221,-150.9424 870.2222,-140.9425 863.2222,-140.9424"/>
</g>
<!-- CanActivateUser -->
<g id="node9" class="node">
<title>CanActivateUser</title>
<ellipse fill="#fdb462" stroke="#000000" cx="750" cy="-104" rx="77.5627" ry="18"/>
<text text-anchor="middle" x="750" y="-99.8" font-family="Times,serif" font-size="14.00" fill="#000000">CanActivateUser</text>
</g>
<!-- CanActivateUser&#45;&gt;AppModule -->
<g id="edge8" class="edge">
<title>CanActivateUser&#45;&gt;AppModule</title>
<path fill="none" stroke="#000000" d="M815.8516,-113.591C815.8516,-113.591 815.8516,-140.748 815.8516,-140.748"/>
<polygon fill="#000000" stroke="#000000" points="812.3517,-140.7479 815.8516,-150.748 819.3517,-140.748 812.3517,-140.7479"/>
</g>
<!-- User -->
<g id="node10" class="node">
<title>User</title>
<ellipse fill="#fdb462" stroke="#000000" cx="625" cy="-104" rx="29.0318" ry="18"/>
<text text-anchor="middle" x="625" y="-99.8" font-family="Times,serif" font-size="14.00" fill="#000000">User</text>
</g>
<!-- User&#45;&gt;AppModule -->
<g id="edge9" class="edge">
<title>User&#45;&gt;AppModule</title>
<path fill="none" stroke="#000000" d="M625,-122.2396C625,-137.5706 625,-157 625,-157 625,-157 794.1718,-157 794.1718,-157"/>
<polygon fill="#000000" stroke="#000000" points="794.1718,-160.5001 804.1718,-157 794.1717,-153.5001 794.1718,-160.5001"/>
</g>
<!-- Class -->
<g id="node11" class="node">
<title>Class</title>
<ellipse fill="#fdb462" stroke="#000000" cx="546" cy="-104" rx="31.9166" ry="18"/>
<text text-anchor="middle" x="546" y="-99.8" font-family="Times,serif" font-size="14.00" fill="#000000">Class</text>
</g>
<!-- Class&#45;&gt;AppModule -->
<g id="edge10" class="edge">
<title>Class&#45;&gt;AppModule</title>
<path fill="none" stroke="#000000" d="M546,-122.0225C546,-139.3734 546,-163 546,-163 546,-163 794.2863,-163 794.2863,-163"/>
<polygon fill="#000000" stroke="#000000" points="794.2863,-166.5001 804.2863,-163 794.2863,-159.5001 794.2863,-166.5001"/>
</g>
<!-- AlertService -->
<g id="node12" class="node">
<title>AlertService</title>
<ellipse fill="#fdb462" stroke="#000000" cx="436" cy="-104" rx="59.6646" ry="18"/>
<text text-anchor="middle" x="436" y="-99.8" font-family="Times,serif" font-size="14.00" fill="#000000">AlertService</text>
</g>
<!-- AlertService&#45;&gt;AppModule -->
<g id="edge11" class="edge">
<title>AlertService&#45;&gt;AppModule</title>
<path fill="none" stroke="#000000" d="M436,-122.1061C436,-141.3391 436,-169 436,-169 436,-169 794.0496,-169 794.0496,-169"/>
<polygon fill="#000000" stroke="#000000" points="794.0496,-172.5001 804.0496,-169 794.0496,-165.5001 794.0496,-172.5001"/>
</g>
<!-- NbAuthService -->
<g id="node13" class="node">
<title>NbAuthService</title>
<ellipse fill="#fdb462" stroke="#000000" cx="287" cy="-104" rx="71.2075" ry="18"/>
<text text-anchor="middle" x="287" y="-99.8" font-family="Times,serif" font-size="14.00" fill="#000000">NbAuthService</text>
</g>
<!-- NbAuthService&#45;&gt;AppModule -->
<g id="edge12" class="edge">
<title>NbAuthService&#45;&gt;AppModule</title>
<path fill="none" stroke="#000000" d="M287,-122.2843C287,-143.3211 287,-175 287,-175 287,-175 793.9841,-175 793.9841,-175"/>
<polygon fill="#000000" stroke="#000000" points="793.9842,-178.5001 803.9841,-175 793.9841,-171.5001 793.9842,-178.5001"/>
</g>
<!-- NotificationService -->
<g id="node14" class="node">
<title>NotificationService</title>
<ellipse fill="#fdb462" stroke="#000000" cx="111" cy="-104" rx="86.8107" ry="18"/>
<text text-anchor="middle" x="111" y="-99.8" font-family="Times,serif" font-size="14.00" fill="#000000">NotificationService</text>
</g>
<!-- NotificationService&#45;&gt;AppModule -->
<g id="edge13" class="edge">
<title>NotificationService&#45;&gt;AppModule</title>
<path fill="none" stroke="#000000" d="M111,-122.2479C111,-145.0179 111,-181 111,-181 111,-181 794.1107,-181 794.1107,-181"/>
<polygon fill="#000000" stroke="#000000" points="794.1107,-184.5001 804.1107,-181 794.1106,-177.5001 794.1107,-184.5001"/>
</g>
</g>
</svg>
