<?xml version="1.0" encoding="UTF-8" standalone="no"?>
<!DOCTYPE svg PUBLIC "-//W3C//DTD SVG 1.1//EN"
 "http://www.w3.org/Graphics/SVG/1.1/DTD/svg11.dtd">
<!-- Generated by graphviz version 2.40.1 (20161225.0304)
 -->
<!-- Title: dependencies Pages: 1 -->
<svg width="2190pt" height="284pt"
 viewBox="0.00 0.00 2190.00 284.00" xmlns="http://www.w3.org/2000/svg" xmlns:xlink="http://www.w3.org/1999/xlink">
<g id="graph0" class="graph" transform="scale(1 1) rotate(0) translate(4 280)">
<title>dependencies</title>
<polygon fill="#ffffff" stroke="transparent" points="-4,4 -4,-280 2186,-280 2186,4 -4,4"/>
<text text-anchor="start" x="1070.0091" y="-42.4" font-family="sans-serif" font-weight="bold" font-size="14.00" fill="#000000">Legend</text>
<polygon fill="#ffffb3" stroke="transparent" points="857,-10 857,-30 877,-30 877,-10 857,-10"/>
<text text-anchor="start" x="880.629" y="-15.4" font-family="sans-serif" font-size="14.00" fill="#000000"> &#160;Declarations</text>
<polygon fill="#8dd3c7" stroke="transparent" points="970,-10 970,-30 990,-30 990,-10 970,-10"/>
<text text-anchor="start" x="993.7251" y="-15.4" font-family="sans-serif" font-size="14.00" fill="#000000"> &#160;Module</text>
<polygon fill="#80b1d3" stroke="transparent" points="1056,-10 1056,-30 1076,-30 1076,-10 1056,-10"/>
<text text-anchor="start" x="1079.7812" y="-15.4" font-family="sans-serif" font-size="14.00" fill="#000000"> &#160;Bootstrap</text>
<polygon fill="#fdb462" stroke="transparent" points="1153,-10 1153,-30 1173,-30 1173,-10 1153,-10"/>
<text text-anchor="start" x="1176.6732" y="-15.4" font-family="sans-serif" font-size="14.00" fill="#000000"> &#160;Providers</text>
<polygon fill="#fb8072" stroke="transparent" points="1249,-10 1249,-30 1269,-30 1269,-10 1249,-10"/>
<text text-anchor="start" x="1272.7258" y="-15.4" font-family="sans-serif" font-size="14.00" fill="#000000"> &#160;Exports</text>
<g id="clust1" class="cluster">
<title>cluster_AppModule</title>
<polygon fill="none" stroke="#000000" stroke-dasharray="1,5" points="8,-70 8,-268 2174,-268 2174,-70 8,-70"/>
</g>
<g id="clust2" class="cluster">
<title>cluster_AppModule_declarations</title>
<polygon fill="none" stroke="#000000" points="1844,-78 1844,-130 2166,-130 2166,-78 1844,-78"/>
</g>
<g id="clust5" class="cluster">
<title>cluster_AppModule_imports</title>
<polygon fill="none" stroke="#000000" points="1692,-78 1692,-130 1836,-130 1836,-78 1692,-78"/>
</g>
<g id="clust7" class="cluster">
<title>cluster_AppModule_bootstrap</title>
<polygon fill="none" stroke="#000000" points="984,-208 984,-260 1108,-260 1108,-208 984,-208"/>
</g>
<g id="clust8" class="cluster">
<title>cluster_AppModule_providers</title>
<polygon fill="none" stroke="#000000" points="16,-78 16,-130 1684,-130 1684,-78 16,-78"/>
</g>
<!-- AppComponent -->
<g id="node1" class="node">
<title>AppComponent</title>
<polygon fill="#ffffb3" stroke="#000000" points="2157.9399,-122 2052.0601,-122 2052.0601,-86 2157.9399,-86 2157.9399,-122"/>
<text text-anchor="middle" x="2105" y="-99.8" font-family="Times,serif" font-size="14.00" fill="#000000">AppComponent</text>
</g>
<!-- AppModule -->
<g id="node3" class="node">
<title>AppModule</title>
<polygon fill="#8dd3c7" stroke="#000000" points="1087.6571,-187 1084.6571,-191 1063.6571,-191 1060.6571,-187 1004.3429,-187 1004.3429,-151 1087.6571,-151 1087.6571,-187"/>
<text text-anchor="middle" x="1046" y="-164.8" font-family="Times,serif" font-size="14.00" fill="#000000">AppModule</text>
</g>
<!-- AppComponent&#45;&gt;AppModule -->
<g id="edge1" class="edge">
<title>AppComponent&#45;&gt;AppModule</title>
<path fill="none" stroke="#000000" d="M2105,-122.0908C2105,-145.1328 2105,-182 2105,-182 2105,-182 1097.8402,-182 1097.8402,-182"/>
<polygon fill="#000000" stroke="#000000" points="1097.8403,-178.5001 1087.8402,-182 1097.8402,-185.5001 1097.8403,-178.5001"/>
</g>
<!-- ClassViewRenderComponent -->
<g id="node2" class="node">
<title>ClassViewRenderComponent</title>
<polygon fill="#ffffb3" stroke="#000000" points="2034.4087,-122 1851.5913,-122 1851.5913,-86 2034.4087,-86 2034.4087,-122"/>
<text text-anchor="middle" x="1943" y="-99.8" font-family="Times,serif" font-size="14.00" fill="#000000">ClassViewRenderComponent</text>
</g>
<!-- ClassViewRenderComponent&#45;&gt;AppModule -->
<g id="edge2" class="edge">
<title>ClassViewRenderComponent&#45;&gt;AppModule</title>
<path fill="none" stroke="#000000" d="M1943,-122.0449C1943,-143.6623 1943,-177 1943,-177 1943,-177 1097.7626,-177 1097.7626,-177"/>
<polygon fill="#000000" stroke="#000000" points="1097.7627,-173.5001 1087.7626,-177 1097.7626,-180.5001 1097.7627,-173.5001"/>
</g>
<!-- AppComponent  -->
<g id="node5" class="node">
<title>AppComponent </title>
<polygon fill="#80b1d3" stroke="#000000" points="1100.439,-252 991.561,-252 991.561,-216 1100.439,-216 1100.439,-252"/>
<text text-anchor="middle" x="1046" y="-229.8" font-family="Times,serif" font-size="14.00" fill="#000000">AppComponent </text>
</g>
<!-- AppModule&#45;&gt;AppComponent  -->
<g id="edge4" class="edge">
<title>AppModule&#45;&gt;AppComponent </title>
<path fill="none" stroke="#000000" stroke-dasharray="1,5" d="M1046,-187.1061C1046,-187.1061 1046,-205.991 1046,-205.991"/>
<polygon fill="#000000" stroke="#000000" points="1042.5001,-205.9909 1046,-215.991 1049.5001,-205.991 1042.5001,-205.9909"/>
</g>
<!-- AppRoutingModule -->
<g id="node4" class="node">
<title>AppRoutingModule</title>
<polygon fill="#8dd3c7" stroke="#000000" points="1828.2744,-122 1825.2744,-126 1804.2744,-126 1801.2744,-122 1699.7256,-122 1699.7256,-86 1828.2744,-86 1828.2744,-122"/>
<text text-anchor="middle" x="1764" y="-99.8" font-family="Times,serif" font-size="14.00" fill="#000000">AppRoutingModule</text>
</g>
<!-- AppRoutingModule&#45;&gt;AppModule -->
<g id="edge3" class="edge">
<title>AppRoutingModule&#45;&gt;AppModule</title>
<path fill="none" stroke="#000000" d="M1764,-122.2228C1764,-142.3652 1764,-172 1764,-172 1764,-172 1097.7062,-172 1097.7062,-172"/>
<polygon fill="#000000" stroke="#000000" points="1097.7062,-168.5001 1087.7062,-172 1097.7061,-175.5001 1097.7062,-168.5001"/>
</g>
<!-- RegisterService -->
<g id="node6" class="node">
<title>RegisterService</title>
<ellipse fill="#fdb462" stroke="#000000" cx="1604" cy="-104" rx="72.3439" ry="18"/>
<text text-anchor="middle" x="1604" y="-99.8" font-family="Times,serif" font-size="14.00" fill="#000000">RegisterService</text>
</g>
<!-- RegisterService&#45;&gt;AppModule -->
<g id="edge5" class="edge">
<title>RegisterService&#45;&gt;AppModule</title>
<path fill="none" stroke="#000000" d="M1604,-122.2222C1604,-140.8285 1604,-167 1604,-167 1604,-167 1097.9407,-167 1097.9407,-167"/>
<polygon fill="#000000" stroke="#000000" points="1097.9407,-163.5001 1087.9407,-167 1097.9407,-170.5001 1097.9407,-163.5001"/>
</g>
<!-- UserService -->
<g id="node7" class="node">
<title>UserService</title>
<ellipse fill="#fdb462" stroke="#000000" cx="1456" cy="-104" rx="58.4415" ry="18"/>
<text text-anchor="middle" x="1456" y="-99.8" font-family="Times,serif" font-size="14.00" fill="#000000">UserService</text>
</g>
<!-- UserService&#45;&gt;AppModule -->
<g id="edge6" class="edge">
<title>UserService&#45;&gt;AppModule</title>
<path fill="none" stroke="#000000" d="M1456,-122.0336C1456,-139.0597 1456,-162 1456,-162 1456,-162 1097.9504,-162 1097.9504,-162"/>
<polygon fill="#000000" stroke="#000000" points="1097.9504,-158.5001 1087.9504,-162 1097.9504,-165.5001 1097.9504,-158.5001"/>
</g>
<!-- ClassService -->
<g id="node8" class="node">
<title>ClassService</title>
<ellipse fill="#fdb462" stroke="#000000" cx="1319" cy="-104" rx="60.8274" ry="18"/>
<text text-anchor="middle" x="1319" y="-99.8" font-family="Times,serif" font-size="14.00" fill="#000000">ClassService</text>
</g>
<!-- ClassService&#45;&gt;AppModule -->
<g id="edge7" class="edge">
<title>ClassService&#45;&gt;AppModule</title>
<path fill="none" stroke="#000000" d="M1319,-122.2396C1319,-137.5706 1319,-157 1319,-157 1319,-157 1097.76,-157 1097.76,-157"/>
<polygon fill="#000000" stroke="#000000" points="1097.76,-153.5001 1087.76,-157 1097.76,-160.5001 1097.76,-153.5001"/>
</g>
<!-- AppointmentService -->
<g id="node9" class="node">
<title>AppointmentService</title>
<ellipse fill="#fdb462" stroke="#000000" cx="1149" cy="-104" rx="90.9109" ry="18"/>
<text text-anchor="middle" x="1149" y="-99.8" font-family="Times,serif" font-size="14.00" fill="#000000">AppointmentService</text>
</g>
<!-- AppointmentService&#45;&gt;AppModule -->
<g id="edge8" class="edge">
<title>AppointmentService&#45;&gt;AppModule</title>
<path fill="none" stroke="#000000" d="M1072.9364,-113.8721C1072.9364,-113.8721 1072.9364,-140.9074 1072.9364,-140.9074"/>
<polygon fill="#000000" stroke="#000000" points="1069.4365,-140.9073 1072.9364,-150.9074 1076.4365,-140.9074 1069.4365,-140.9073"/>
</g>
<!-- AuthenticationService -->
<g id="node10" class="node">
<title>AuthenticationService</title>
<ellipse fill="#fdb462" stroke="#000000" cx="943" cy="-104" rx="97.2683" ry="18"/>
<text text-anchor="middle" x="943" y="-99.8" font-family="Times,serif" font-size="14.00" fill="#000000">AuthenticationService</text>
</g>
<!-- AuthenticationService&#45;&gt;AppModule -->
<g id="edge9" class="edge">
<title>AuthenticationService&#45;&gt;AppModule</title>
<path fill="none" stroke="#000000" d="M1022.2779,-114.7334C1022.2779,-114.7334 1022.2779,-140.8723 1022.2779,-140.8723"/>
<polygon fill="#000000" stroke="#000000" points="1018.778,-140.8722 1022.2779,-150.8723 1025.778,-140.8723 1018.778,-140.8722"/>
</g>
<!-- CanActivateUser -->
<g id="node11" class="node">
<title>CanActivateUser</title>
<ellipse fill="#fdb462" stroke="#000000" cx="750" cy="-104" rx="77.5627" ry="18"/>
<text text-anchor="middle" x="750" y="-99.8" font-family="Times,serif" font-size="14.00" fill="#000000">CanActivateUser</text>
</g>
<!-- CanActivateUser&#45;&gt;AppModule -->
<g id="edge10" class="edge">
<title>CanActivateUser&#45;&gt;AppModule</title>
<path fill="none" stroke="#000000" d="M750,-122.2396C750,-137.5706 750,-157 750,-157 750,-157 994.2182,-157 994.2182,-157"/>
<polygon fill="#000000" stroke="#000000" points="994.2183,-160.5001 1004.2182,-157 994.2182,-153.5001 994.2183,-160.5001"/>
</g>
<!-- User -->
<g id="node12" class="node">
<title>User</title>
<ellipse fill="#fdb462" stroke="#000000" cx="625" cy="-104" rx="29.0318" ry="18"/>
<text text-anchor="middle" x="625" y="-99.8" font-family="Times,serif" font-size="14.00" fill="#000000">User</text>
</g>
<!-- User&#45;&gt;AppModule -->
<g id="edge11" class="edge">
<title>User&#45;&gt;AppModule</title>
<path fill="none" stroke="#000000" d="M625,-122.0336C625,-139.0597 625,-162 625,-162 625,-162 994.0938,-162 994.0938,-162"/>
<polygon fill="#000000" stroke="#000000" points="994.0938,-165.5001 1004.0938,-162 994.0937,-158.5001 994.0938,-165.5001"/>
</g>
<!-- Class -->
<g id="node13" class="node">
<title>Class</title>
<ellipse fill="#fdb462" stroke="#000000" cx="546" cy="-104" rx="31.9166" ry="18"/>
<text text-anchor="middle" x="546" y="-99.8" font-family="Times,serif" font-size="14.00" fill="#000000">Class</text>
</g>
<!-- Class&#45;&gt;AppModule -->
<g id="edge12" class="edge">
<title>Class&#45;&gt;AppModule</title>
<path fill="none" stroke="#000000" d="M546,-122.2222C546,-140.8285 546,-167 546,-167 546,-167 994.2303,-167 994.2303,-167"/>
<polygon fill="#000000" stroke="#000000" points="994.2303,-170.5001 1004.2303,-167 994.2302,-163.5001 994.2303,-170.5001"/>
</g>
<!-- AlertService -->
<g id="node14" class="node">
<title>AlertService</title>
<ellipse fill="#fdb462" stroke="#000000" cx="436" cy="-104" rx="59.6646" ry="18"/>
<text text-anchor="middle" x="436" y="-99.8" font-family="Times,serif" font-size="14.00" fill="#000000">AlertService</text>
</g>
<!-- AlertService&#45;&gt;AppModule -->
<g id="edge13" class="edge">
<title>AlertService&#45;&gt;AppModule</title>
<path fill="none" stroke="#000000" d="M436,-122.2228C436,-142.3652 436,-172 436,-172 436,-172 994.0722,-172 994.0722,-172"/>
<polygon fill="#000000" stroke="#000000" points="994.0723,-175.5001 1004.0722,-172 994.0722,-168.5001 994.0723,-175.5001"/>
</g>
<!-- NbAuthService -->
<g id="node15" class="node">
<title>NbAuthService</title>
<ellipse fill="#fdb462" stroke="#000000" cx="287" cy="-104" rx="71.2075" ry="18"/>
<text text-anchor="middle" x="287" y="-99.8" font-family="Times,serif" font-size="14.00" fill="#000000">NbAuthService</text>
</g>
<!-- NbAuthService&#45;&gt;AppModule -->
<g id="edge14" class="edge">
<title>NbAuthService&#45;&gt;AppModule</title>
<path fill="none" stroke="#000000" d="M287,-122.0449C287,-143.6623 287,-177 287,-177 287,-177 994.1117,-177 994.1117,-177"/>
<polygon fill="#000000" stroke="#000000" points="994.1118,-180.5001 1004.1117,-177 994.1117,-173.5001 994.1118,-180.5001"/>
</g>
<!-- NotificationService -->
<g id="node16" class="node">
<title>NotificationService</title>
<ellipse fill="#fdb462" stroke="#000000" cx="111" cy="-104" rx="86.8107" ry="18"/>
<text text-anchor="middle" x="111" y="-99.8" font-family="Times,serif" font-size="14.00" fill="#000000">NotificationService</text>
</g>
<!-- NotificationService&#45;&gt;AppModule -->
<g id="edge15" class="edge">
<title>NotificationService&#45;&gt;AppModule</title>
<path fill="none" stroke="#000000" d="M111,-122.0908C111,-145.1328 111,-182 111,-182 111,-182 994.3137,-182 994.3137,-182"/>
<polygon fill="#000000" stroke="#000000" points="994.3137,-185.5001 1004.3137,-182 994.3136,-178.5001 994.3137,-185.5001"/>
</g>
</g>
</svg>
