<?xml version="1.0" encoding="UTF-8" standalone="no"?>
<!DOCTYPE svg PUBLIC "-//W3C//DTD SVG 1.1//EN"
 "http://www.w3.org/Graphics/SVG/1.1/DTD/svg11.dtd">
<!-- Generated by graphviz version 2.40.1 (20161225.0304)
 -->
<!-- Title: dependencies Pages: 1 -->
<svg width="3385pt" height="284pt"
 viewBox="0.00 0.00 3385.00 284.00" xmlns="http://www.w3.org/2000/svg" xmlns:xlink="http://www.w3.org/1999/xlink">
<g id="graph0" class="graph" transform="scale(1 1) rotate(0) translate(4 280)">
<title>dependencies</title>
<polygon fill="#ffffff" stroke="transparent" points="-4,4 -4,-280 3381,-280 3381,4 -4,4"/>
<text text-anchor="start" x="1667.5091" y="-42.4" font-family="sans-serif" font-weight="bold" font-size="14.00" fill="#000000">Legend</text>
<polygon fill="#ffffb3" stroke="transparent" points="1454.5,-10 1454.5,-30 1474.5,-30 1474.5,-10 1454.5,-10"/>
<text text-anchor="start" x="1478.129" y="-15.4" font-family="sans-serif" font-size="14.00" fill="#000000"> &#160;Declarations</text>
<polygon fill="#8dd3c7" stroke="transparent" points="1567.5,-10 1567.5,-30 1587.5,-30 1587.5,-10 1567.5,-10"/>
<text text-anchor="start" x="1591.2251" y="-15.4" font-family="sans-serif" font-size="14.00" fill="#000000"> &#160;Module</text>
<polygon fill="#80b1d3" stroke="transparent" points="1653.5,-10 1653.5,-30 1673.5,-30 1673.5,-10 1653.5,-10"/>
<text text-anchor="start" x="1677.2812" y="-15.4" font-family="sans-serif" font-size="14.00" fill="#000000"> &#160;Bootstrap</text>
<polygon fill="#fdb462" stroke="transparent" points="1750.5,-10 1750.5,-30 1770.5,-30 1770.5,-10 1750.5,-10"/>
<text text-anchor="start" x="1774.1732" y="-15.4" font-family="sans-serif" font-size="14.00" fill="#000000"> &#160;Providers</text>
<polygon fill="#fb8072" stroke="transparent" points="1846.5,-10 1846.5,-30 1866.5,-30 1866.5,-10 1846.5,-10"/>
<text text-anchor="start" x="1870.2258" y="-15.4" font-family="sans-serif" font-size="14.00" fill="#000000"> &#160;Exports</text>
<g id="clust1" class="cluster">
<title>cluster_AppModule</title>
<polygon fill="none" stroke="#000000" stroke-dasharray="1,5" points="8,-70 8,-268 3369,-268 3369,-70 8,-70"/>
</g>
<g id="clust2" class="cluster">
<title>cluster_AppModule_declarations</title>
<polygon fill="none" stroke="#000000" points="2396,-78 2396,-130 3361,-130 3361,-78 2396,-78"/>
</g>
<g id="clust8" class="cluster">
<title>cluster_AppModule_imports</title>
<polygon fill="none" stroke="#000000" points="2244,-78 2244,-130 2388,-130 2388,-78 2244,-78"/>
</g>
<g id="clust10" class="cluster">
<title>cluster_AppModule_bootstrap</title>
<polygon fill="none" stroke="#000000" points="1536,-208 1536,-260 1660,-260 1660,-208 1536,-208"/>
</g>
<g id="clust11" class="cluster">
<title>cluster_AppModule_providers</title>
<polygon fill="none" stroke="#000000" points="16,-78 16,-130 2236,-130 2236,-78 16,-78"/>
</g>
<!-- AppComponent -->
<g id="node1" class="node">
<title>AppComponent</title>
<polygon fill="#ffffb3" stroke="#000000" points="3352.9399,-122 3247.0601,-122 3247.0601,-86 3352.9399,-86 3352.9399,-122"/>
<text text-anchor="middle" x="3300" y="-99.8" font-family="Times,serif" font-size="14.00" fill="#000000">AppComponent</text>
</g>
<!-- AppModule -->
<g id="node6" class="node">
<title>AppModule</title>
<polygon fill="#8dd3c7" stroke="#000000" points="1639.6571,-187 1636.6571,-191 1615.6571,-191 1612.6571,-187 1556.3429,-187 1556.3429,-151 1639.6571,-151 1639.6571,-187"/>
<text text-anchor="middle" x="1598" y="-164.8" font-family="Times,serif" font-size="14.00" fill="#000000">AppModule</text>
</g>
<!-- AppComponent&#45;&gt;AppModule -->
<g id="edge1" class="edge">
<title>AppComponent&#45;&gt;AppModule</title>
<path fill="none" stroke="#000000" d="M3300,-122.1532C3300,-145.7566 3300,-184 3300,-184 3300,-184 1650.0721,-184 1650.0721,-184"/>
<polygon fill="#000000" stroke="#000000" points="1650.0722,-180.5001 1640.0721,-184 1650.0721,-187.5001 1650.0722,-180.5001"/>
</g>
<!-- ClassViewRenderComponent -->
<g id="node2" class="node">
<title>ClassViewRenderComponent</title>
<polygon fill="#ffffb3" stroke="#000000" points="3229.4087,-122 3046.5913,-122 3046.5913,-86 3229.4087,-86 3229.4087,-122"/>
<text text-anchor="middle" x="3138" y="-99.8" font-family="Times,serif" font-size="14.00" fill="#000000">ClassViewRenderComponent</text>
</g>
<!-- ClassViewRenderComponent&#45;&gt;AppModule -->
<g id="edge2" class="edge">
<title>ClassViewRenderComponent&#45;&gt;AppModule</title>
<path fill="none" stroke="#000000" d="M3138,-122.0109C3138,-144.4852 3138,-180 3138,-180 3138,-180 1649.99,-180 1649.99,-180"/>
<polygon fill="#000000" stroke="#000000" points="1649.99,-176.5001 1639.99,-180 1649.9899,-183.5001 1649.99,-176.5001"/>
</g>
<!-- CartViewRenderComponent -->
<g id="node3" class="node">
<title>CartViewRenderComponent</title>
<polygon fill="#ffffb3" stroke="#000000" points="3029.1797,-122 2852.8203,-122 2852.8203,-86 3029.1797,-86 3029.1797,-122"/>
<text text-anchor="middle" x="2941" y="-99.8" font-family="Times,serif" font-size="14.00" fill="#000000">CartViewRenderComponent</text>
</g>
<!-- CartViewRenderComponent&#45;&gt;AppModule -->
<g id="edge3" class="edge">
<title>CartViewRenderComponent&#45;&gt;AppModule</title>
<path fill="none" stroke="#000000" d="M2941,-122.0449C2941,-143.6623 2941,-177 2941,-177 2941,-177 1649.666,-177 1649.666,-177"/>
<polygon fill="#000000" stroke="#000000" points="1649.666,-173.5001 1639.666,-177 1649.666,-180.5001 1649.666,-173.5001"/>
</g>
<!-- AdvisorChatListRenderComponent -->
<g id="node4" class="node">
<title>AdvisorChatListRenderComponent</title>
<polygon fill="#ffffb3" stroke="#000000" points="2834.5814,-122 2619.4186,-122 2619.4186,-86 2834.5814,-86 2834.5814,-122"/>
<text text-anchor="middle" x="2727" y="-99.8" font-family="Times,serif" font-size="14.00" fill="#000000">AdvisorChatListRenderComponent</text>
</g>
<!-- AdvisorChatListRenderComponent&#45;&gt;AppModule -->
<g id="edge4" class="edge">
<title>AdvisorChatListRenderComponent&#45;&gt;AppModule</title>
<path fill="none" stroke="#000000" d="M2727,-122.1289C2727,-142.5724 2727,-173 2727,-173 2727,-173 1649.8585,-173 1649.8585,-173"/>
<polygon fill="#000000" stroke="#000000" points="1649.8586,-169.5001 1639.8585,-173 1649.8585,-176.5001 1649.8586,-169.5001"/>
</g>
<!-- AdvisorViewRenderComponent -->
<g id="node5" class="node">
<title>AdvisorViewRenderComponent</title>
<polygon fill="#ffffb3" stroke="#000000" points="2601.6797,-122 2404.3203,-122 2404.3203,-86 2601.6797,-86 2601.6797,-122"/>
<text text-anchor="middle" x="2503" y="-99.8" font-family="Times,serif" font-size="14.00" fill="#000000">AdvisorViewRenderComponent</text>
</g>
<!-- AdvisorViewRenderComponent&#45;&gt;AppModule -->
<g id="edge5" class="edge">
<title>AdvisorViewRenderComponent&#45;&gt;AppModule</title>
<path fill="none" stroke="#000000" d="M2503,-122.1061C2503,-141.3391 2503,-169 2503,-169 2503,-169 1649.835,-169 1649.835,-169"/>
<polygon fill="#000000" stroke="#000000" points="1649.835,-165.5001 1639.835,-169 1649.835,-172.5001 1649.835,-165.5001"/>
</g>
<!-- AppComponent  -->
<g id="node8" class="node">
<title>AppComponent </title>
<polygon fill="#80b1d3" stroke="#000000" points="1652.439,-252 1543.561,-252 1543.561,-216 1652.439,-216 1652.439,-252"/>
<text text-anchor="middle" x="1598" y="-229.8" font-family="Times,serif" font-size="14.00" fill="#000000">AppComponent </text>
</g>
<!-- AppModule&#45;&gt;AppComponent  -->
<g id="edge7" class="edge">
<title>AppModule&#45;&gt;AppComponent </title>
<path fill="none" stroke="#000000" stroke-dasharray="1,5" d="M1598,-187.1061C1598,-187.1061 1598,-205.991 1598,-205.991"/>
<polygon fill="#000000" stroke="#000000" points="1594.5001,-205.9909 1598,-215.991 1601.5001,-205.991 1594.5001,-205.9909"/>
</g>
<!-- AppRoutingModule -->
<g id="node7" class="node">
<title>AppRoutingModule</title>
<polygon fill="#8dd3c7" stroke="#000000" points="2380.2744,-122 2377.2744,-126 2356.2744,-126 2353.2744,-122 2251.7256,-122 2251.7256,-86 2380.2744,-86 2380.2744,-122"/>
<text text-anchor="middle" x="2316" y="-99.8" font-family="Times,serif" font-size="14.00" fill="#000000">AppRoutingModule</text>
</g>
<!-- AppRoutingModule&#45;&gt;AppModule -->
<g id="edge6" class="edge">
<title>AppRoutingModule&#45;&gt;AppModule</title>
<path fill="none" stroke="#000000" d="M2316,-122.2667C2316,-140.5552 2316,-166 2316,-166 2316,-166 1649.7062,-166 1649.7062,-166"/>
<polygon fill="#000000" stroke="#000000" points="1649.7062,-162.5001 1639.7062,-166 1649.7061,-169.5001 1649.7062,-162.5001"/>
</g>
<!-- RegisterService -->
<g id="node9" class="node">
<title>RegisterService</title>
<ellipse fill="#fdb462" stroke="#000000" cx="2156" cy="-104" rx="72.3439" ry="18"/>
<text text-anchor="middle" x="2156" y="-99.8" font-family="Times,serif" font-size="14.00" fill="#000000">RegisterService</text>
</g>
<!-- RegisterService&#45;&gt;AppModule -->
<g id="edge8" class="edge">
<title>RegisterService&#45;&gt;AppModule</title>
<path fill="none" stroke="#000000" d="M2156,-122.0336C2156,-139.0597 2156,-162 2156,-162 2156,-162 1649.9407,-162 1649.9407,-162"/>
<polygon fill="#000000" stroke="#000000" points="1649.9407,-158.5001 1639.9407,-162 1649.9407,-165.5001 1649.9407,-158.5001"/>
</g>
<!-- UserService -->
<g id="node10" class="node">
<title>UserService</title>
<ellipse fill="#fdb462" stroke="#000000" cx="2008" cy="-104" rx="58.4415" ry="18"/>
<text text-anchor="middle" x="2008" y="-99.8" font-family="Times,serif" font-size="14.00" fill="#000000">UserService</text>
</g>
<!-- UserService&#45;&gt;AppModule -->
<g id="edge9" class="edge">
<title>UserService&#45;&gt;AppModule</title>
<path fill="none" stroke="#000000" d="M2008,-122.0091C2008,-138.0494 2008,-159 2008,-159 2008,-159 1649.9504,-159 1649.9504,-159"/>
<polygon fill="#000000" stroke="#000000" points="1649.9504,-155.5001 1639.9504,-159 1649.9504,-162.5001 1649.9504,-155.5001"/>
</g>
<!-- ClassService -->
<g id="node11" class="node">
<title>ClassService</title>
<ellipse fill="#fdb462" stroke="#000000" cx="1871" cy="-104" rx="60.8274" ry="18"/>
<text text-anchor="middle" x="1871" y="-99.8" font-family="Times,serif" font-size="14.00" fill="#000000">ClassService</text>
</g>
<!-- ClassService&#45;&gt;AppModule -->
<g id="edge10" class="edge">
<title>ClassService&#45;&gt;AppModule</title>
<path fill="none" stroke="#000000" d="M1871,-122.1243C1871,-136.7832 1871,-155 1871,-155 1871,-155 1649.76,-155 1649.76,-155"/>
<polygon fill="#000000" stroke="#000000" points="1649.76,-151.5001 1639.76,-155 1649.76,-158.5001 1649.76,-151.5001"/>
</g>
<!-- AppointmentService -->
<g id="node12" class="node">
<title>AppointmentService</title>
<ellipse fill="#fdb462" stroke="#000000" cx="1701" cy="-104" rx="90.9109" ry="18"/>
<text text-anchor="middle" x="1701" y="-99.8" font-family="Times,serif" font-size="14.00" fill="#000000">AppointmentService</text>
</g>
<!-- AppointmentService&#45;&gt;AppModule -->
<g id="edge11" class="edge">
<title>AppointmentService&#45;&gt;AppModule</title>
<path fill="none" stroke="#000000" d="M1624.9364,-113.8721C1624.9364,-113.8721 1624.9364,-140.9074 1624.9364,-140.9074"/>
<polygon fill="#000000" stroke="#000000" points="1621.4365,-140.9073 1624.9364,-150.9074 1628.4365,-140.9074 1621.4365,-140.9073"/>
</g>
<!-- AuthenticationService -->
<g id="node13" class="node">
<title>AuthenticationService</title>
<ellipse fill="#fdb462" stroke="#000000" cx="1495" cy="-104" rx="97.2683" ry="18"/>
<text text-anchor="middle" x="1495" y="-99.8" font-family="Times,serif" font-size="14.00" fill="#000000">AuthenticationService</text>
</g>
<!-- AuthenticationService&#45;&gt;AppModule -->
<g id="edge12" class="edge">
<title>AuthenticationService&#45;&gt;AppModule</title>
<path fill="none" stroke="#000000" d="M1574.2779,-114.7334C1574.2779,-114.7334 1574.2779,-140.8723 1574.2779,-140.8723"/>
<polygon fill="#000000" stroke="#000000" points="1570.778,-140.8722 1574.2779,-150.8723 1577.778,-140.8723 1570.778,-140.8722"/>
</g>
<!-- CanActivateUser -->
<g id="node14" class="node">
<title>CanActivateUser</title>
<ellipse fill="#fdb462" stroke="#000000" cx="1302" cy="-104" rx="77.5627" ry="18"/>
<text text-anchor="middle" x="1302" y="-99.8" font-family="Times,serif" font-size="14.00" fill="#000000">CanActivateUser</text>
</g>
<!-- CanActivateUser&#45;&gt;AppModule -->
<g id="edge13" class="edge">
<title>CanActivateUser&#45;&gt;AppModule</title>
<path fill="none" stroke="#000000" d="M1302,-122.1243C1302,-136.7832 1302,-155 1302,-155 1302,-155 1546.2182,-155 1546.2182,-155"/>
<polygon fill="#000000" stroke="#000000" points="1546.2183,-158.5001 1556.2182,-155 1546.2182,-151.5001 1546.2183,-158.5001"/>
</g>
<!-- User -->
<g id="node15" class="node">
<title>User</title>
<ellipse fill="#fdb462" stroke="#000000" cx="1177" cy="-104" rx="29.0318" ry="18"/>
<text text-anchor="middle" x="1177" y="-99.8" font-family="Times,serif" font-size="14.00" fill="#000000">User</text>
</g>
<!-- User&#45;&gt;AppModule -->
<g id="edge14" class="edge">
<title>User&#45;&gt;AppModule</title>
<path fill="none" stroke="#000000" d="M1177,-122.0091C1177,-138.0494 1177,-159 1177,-159 1177,-159 1546.0938,-159 1546.0938,-159"/>
<polygon fill="#000000" stroke="#000000" points="1546.0938,-162.5001 1556.0938,-159 1546.0937,-155.5001 1546.0938,-162.5001"/>
</g>
<!-- Class -->
<g id="node16" class="node">
<title>Class</title>
<ellipse fill="#fdb462" stroke="#000000" cx="1098" cy="-104" rx="31.9166" ry="18"/>
<text text-anchor="middle" x="1098" y="-99.8" font-family="Times,serif" font-size="14.00" fill="#000000">Class</text>
</g>
<!-- Class&#45;&gt;AppModule -->
<g id="edge15" class="edge">
<title>Class&#45;&gt;AppModule</title>
<path fill="none" stroke="#000000" d="M1098,-122.0336C1098,-139.0597 1098,-162 1098,-162 1098,-162 1546.2303,-162 1546.2303,-162"/>
<polygon fill="#000000" stroke="#000000" points="1546.2303,-165.5001 1556.2303,-162 1546.2302,-158.5001 1546.2303,-165.5001"/>
</g>
<!-- AlertService -->
<g id="node17" class="node">
<title>AlertService</title>
<ellipse fill="#fdb462" stroke="#000000" cx="988" cy="-104" rx="59.6646" ry="18"/>
<text text-anchor="middle" x="988" y="-99.8" font-family="Times,serif" font-size="14.00" fill="#000000">AlertService</text>
</g>
<!-- AlertService&#45;&gt;AppModule -->
<g id="edge16" class="edge">
<title>AlertService&#45;&gt;AppModule</title>
<path fill="none" stroke="#000000" d="M988,-122.2667C988,-140.5552 988,-166 988,-166 988,-166 1546.0722,-166 1546.0722,-166"/>
<polygon fill="#000000" stroke="#000000" points="1546.0723,-169.5001 1556.0722,-166 1546.0722,-162.5001 1546.0723,-169.5001"/>
</g>
<!-- NbAuthService -->
<g id="node18" class="node">
<title>NbAuthService</title>
<ellipse fill="#fdb462" stroke="#000000" cx="839" cy="-104" rx="71.2075" ry="18"/>
<text text-anchor="middle" x="839" y="-99.8" font-family="Times,serif" font-size="14.00" fill="#000000">NbAuthService</text>
</g>
<!-- NbAuthService&#45;&gt;AppModule -->
<g id="edge17" class="edge">
<title>NbAuthService&#45;&gt;AppModule</title>
<path fill="none" stroke="#000000" d="M839,-122.1061C839,-141.3391 839,-169 839,-169 839,-169 1546.1117,-169 1546.1117,-169"/>
<polygon fill="#000000" stroke="#000000" points="1546.1118,-172.5001 1556.1117,-169 1546.1117,-165.5001 1546.1118,-172.5001"/>
</g>
<!-- NotificationService -->
<g id="node19" class="node">
<title>NotificationService</title>
<ellipse fill="#fdb462" stroke="#000000" cx="663" cy="-104" rx="86.8107" ry="18"/>
<text text-anchor="middle" x="663" y="-99.8" font-family="Times,serif" font-size="14.00" fill="#000000">NotificationService</text>
</g>
<!-- NotificationService&#45;&gt;AppModule -->
<g id="edge18" class="edge">
<title>NotificationService&#45;&gt;AppModule</title>
<path fill="none" stroke="#000000" d="M663,-122.1289C663,-142.5724 663,-173 663,-173 663,-173 1546.3137,-173 1546.3137,-173"/>
<polygon fill="#000000" stroke="#000000" points="1546.3137,-176.5001 1556.3137,-173 1546.3136,-169.5001 1546.3137,-176.5001"/>
</g>
<!-- CartService -->
<g id="node20" class="node">
<title>CartService</title>
<ellipse fill="#fdb462" stroke="#000000" cx="502" cy="-104" rx="56.7348" ry="18"/>
<text text-anchor="middle" x="502" y="-99.8" font-family="Times,serif" font-size="14.00" fill="#000000">CartService</text>
</g>
<!-- CartService&#45;&gt;AppModule -->
<g id="edge19" class="edge">
<title>CartService&#45;&gt;AppModule</title>
<path fill="none" stroke="#000000" d="M502,-122.0449C502,-143.6623 502,-177 502,-177 502,-177 1546.041,-177 1546.041,-177"/>
<polygon fill="#000000" stroke="#000000" points="1546.0411,-180.5001 1556.041,-177 1546.041,-173.5001 1546.0411,-180.5001"/>
</g>
<!-- AdvisementService -->
<g id="node21" class="node">
<title>AdvisementService</title>
<ellipse fill="#fdb462" stroke="#000000" cx="341" cy="-104" rx="86.8146" ry="18"/>
<text text-anchor="middle" x="341" y="-99.8" font-family="Times,serif" font-size="14.00" fill="#000000">AdvisementService</text>
</g>
<!-- AdvisementService&#45;&gt;AppModule -->
<g id="edge20" class="edge">
<title>AdvisementService&#45;&gt;AppModule</title>
<path fill="none" stroke="#000000" d="M341,-122.0109C341,-144.4852 341,-180 341,-180 341,-180 1546.1774,-180 1546.1774,-180"/>
<polygon fill="#000000" stroke="#000000" points="1546.1774,-183.5001 1556.1774,-180 1546.1773,-176.5001 1546.1774,-183.5001"/>
</g>
<!-- CanActivateAdvisement -->
<g id="node22" class="node">
<title>CanActivateAdvisement</title>
<ellipse fill="#fdb462" stroke="#000000" cx="130" cy="-104" rx="105.9363" ry="18"/>
<text text-anchor="middle" x="130" y="-99.8" font-family="Times,serif" font-size="14.00" fill="#000000">CanActivateAdvisement</text>
</g>
<!-- CanActivateAdvisement&#45;&gt;AppModule -->
<g id="edge21" class="edge">
<title>CanActivateAdvisement&#45;&gt;AppModule</title>
<path fill="none" stroke="#000000" d="M130,-122.1532C130,-145.7566 130,-184 130,-184 130,-184 1546.0404,-184 1546.0404,-184"/>
<polygon fill="#000000" stroke="#000000" points="1546.0404,-187.5001 1556.0404,-184 1546.0403,-180.5001 1546.0404,-187.5001"/>
</g>
</g>
</svg>
