<?xml version="1.0" encoding="UTF-8" standalone="no"?>
<!DOCTYPE svg PUBLIC "-//W3C//DTD SVG 1.1//EN"
 "http://www.w3.org/Graphics/SVG/1.1/DTD/svg11.dtd">
<!-- Generated by graphviz version 2.40.1 (20161225.0304)
 -->
<!-- Title: dependencies Pages: 1 -->
<svg width="1272pt" height="284pt"
 viewBox="0.00 0.00 1272.00 284.00" xmlns="http://www.w3.org/2000/svg" xmlns:xlink="http://www.w3.org/1999/xlink">
<g id="graph0" class="graph" transform="scale(1 1) rotate(0) translate(4 280)">
<title>dependencies</title>
<polygon fill="#ffffff" stroke="transparent" points="-4,4 -4,-280 1268,-280 1268,4 -4,4"/>
<text text-anchor="start" x="611.0091" y="-42.4" font-family="sans-serif" font-weight="bold" font-size="14.00" fill="#000000">Legend</text>
<polygon fill="#ffffb3" stroke="transparent" points="398,-10 398,-30 418,-30 418,-10 398,-10"/>
<text text-anchor="start" x="421.629" y="-15.4" font-family="sans-serif" font-size="14.00" fill="#000000"> &#160;Declarations</text>
<polygon fill="#8dd3c7" stroke="transparent" points="511,-10 511,-30 531,-30 531,-10 511,-10"/>
<text text-anchor="start" x="534.7251" y="-15.4" font-family="sans-serif" font-size="14.00" fill="#000000"> &#160;Module</text>
<polygon fill="#80b1d3" stroke="transparent" points="597,-10 597,-30 617,-30 617,-10 597,-10"/>
<text text-anchor="start" x="620.7812" y="-15.4" font-family="sans-serif" font-size="14.00" fill="#000000"> &#160;Bootstrap</text>
<polygon fill="#fdb462" stroke="transparent" points="694,-10 694,-30 714,-30 714,-10 694,-10"/>
<text text-anchor="start" x="717.6732" y="-15.4" font-family="sans-serif" font-size="14.00" fill="#000000"> &#160;Providers</text>
<polygon fill="#fb8072" stroke="transparent" points="790,-10 790,-30 810,-30 810,-10 790,-10"/>
<text text-anchor="start" x="813.7258" y="-15.4" font-family="sans-serif" font-size="14.00" fill="#000000"> &#160;Exports</text>
<g id="clust1" class="cluster">
<title>cluster_NbAuthModule</title>
<polygon fill="none" stroke="#000000" stroke-dasharray="1,5" points="8,-70 8,-268 1256,-268 1256,-70 8,-70"/>
</g>
<g id="clust2" class="cluster">
<title>cluster_NbAuthModule_declarations</title>
<polygon fill="none" stroke="#000000" points="30,-78 30,-130 1235,-130 1235,-78 30,-78"/>
</g>
<g id="clust11" class="cluster">
<title>cluster_NbAuthModule_exports</title>
<polygon fill="none" stroke="#000000" points="16,-208 16,-260 1248,-260 1248,-208 16,-208"/>
</g>
<!-- NbAuthComponent -->
<g id="node1" class="node">
<title>NbAuthComponent</title>
<polygon fill="#ffffb3" stroke="#000000" points="1227.437,-122 1100.563,-122 1100.563,-86 1227.437,-86 1227.437,-122"/>
<text text-anchor="middle" x="1164" y="-99.8" font-family="Times,serif" font-size="14.00" fill="#000000">NbAuthComponent</text>
</g>
<!-- NbAuthModule -->
<g id="node8" class="node">
<title>NbAuthModule</title>
<polygon fill="#8dd3c7" stroke="#000000" points="735.1542,-187 732.1542,-191 711.1542,-191 708.1542,-187 630.8458,-187 630.8458,-151 735.1542,-151 735.1542,-187"/>
<text text-anchor="middle" x="683" y="-164.8" font-family="Times,serif" font-size="14.00" fill="#000000">NbAuthModule</text>
</g>
<!-- NbAuthComponent&#45;&gt;NbAuthModule -->
<g id="edge1" class="edge">
<title>NbAuthComponent&#45;&gt;NbAuthModule</title>
<path fill="none" stroke="#000000" d="M1105.4069,-122.2222C1105.4069,-140.8285 1105.4069,-167 1105.4069,-167 1105.4069,-167 745.219,-167 745.219,-167"/>
<polygon fill="#000000" stroke="#000000" points="745.2191,-163.5001 735.219,-167 745.219,-170.5001 745.2191,-163.5001"/>
</g>
<!-- NbAuthBlockComponent -->
<g id="node2" class="node">
<title>NbAuthBlockComponent</title>
<polygon fill="#ffffb3" stroke="#000000" points="1082.878,-122 923.122,-122 923.122,-86 1082.878,-86 1082.878,-122"/>
<text text-anchor="middle" x="1003" y="-99.8" font-family="Times,serif" font-size="14.00" fill="#000000">NbAuthBlockComponent</text>
</g>
<!-- NbAuthBlockComponent&#45;&gt;NbAuthModule -->
<g id="edge2" class="edge">
<title>NbAuthBlockComponent&#45;&gt;NbAuthModule</title>
<path fill="none" stroke="#000000" d="M1031.3963,-122.0336C1031.3963,-139.0597 1031.3963,-162 1031.3963,-162 1031.3963,-162 745.1585,-162 745.1585,-162"/>
<polygon fill="#000000" stroke="#000000" points="745.1585,-158.5001 735.1585,-162 745.1584,-165.5001 745.1585,-158.5001"/>
</g>
<!-- NbLoginComponent -->
<g id="node3" class="node">
<title>NbLoginComponent</title>
<polygon fill="#ffffb3" stroke="#000000" points="904.8823,-122 773.1177,-122 773.1177,-86 904.8823,-86 904.8823,-122"/>
<text text-anchor="middle" x="839" y="-99.8" font-family="Times,serif" font-size="14.00" fill="#000000">NbLoginComponent</text>
</g>
<!-- NbLoginComponent&#45;&gt;NbAuthModule -->
<g id="edge3" class="edge">
<title>NbLoginComponent&#45;&gt;NbAuthModule</title>
<path fill="none" stroke="#000000" d="M861.7304,-122.2396C861.7304,-137.5706 861.7304,-157 861.7304,-157 861.7304,-157 745.1767,-157 745.1767,-157"/>
<polygon fill="#000000" stroke="#000000" points="745.1767,-153.5001 735.1767,-157 745.1767,-160.5001 745.1767,-153.5001"/>
</g>
<!-- NbRegisterComponent -->
<g id="node4" class="node">
<title>NbRegisterComponent</title>
<polygon fill="#ffffb3" stroke="#000000" points="755.5912,-122 610.4088,-122 610.4088,-86 755.5912,-86 755.5912,-122"/>
<text text-anchor="middle" x="683" y="-99.8" font-family="Times,serif" font-size="14.00" fill="#000000">NbRegisterComponent</text>
</g>
<!-- NbRegisterComponent&#45;&gt;NbAuthModule -->
<g id="edge4" class="edge">
<title>NbRegisterComponent&#45;&gt;NbAuthModule</title>
<path fill="none" stroke="#000000" d="M683,-122.1061C683,-122.1061 683,-140.991 683,-140.991"/>
<polygon fill="#000000" stroke="#000000" points="679.5001,-140.9909 683,-150.991 686.5001,-140.991 679.5001,-140.9909"/>
</g>
<!-- NbRequestPasswordComponent -->
<g id="node5" class="node">
<title>NbRequestPasswordComponent</title>
<polygon fill="#ffffb3" stroke="#000000" points="592.6937,-122 395.3063,-122 395.3063,-86 592.6937,-86 592.6937,-122"/>
<text text-anchor="middle" x="494" y="-99.8" font-family="Times,serif" font-size="14.00" fill="#000000">NbRequestPasswordComponent</text>
</g>
<!-- NbRequestPasswordComponent&#45;&gt;NbAuthModule -->
<g id="edge5" class="edge">
<title>NbRequestPasswordComponent&#45;&gt;NbAuthModule</title>
<path fill="none" stroke="#000000" d="M525.3656,-122.2396C525.3656,-137.5706 525.3656,-157 525.3656,-157 525.3656,-157 620.51,-157 620.51,-157"/>
<polygon fill="#000000" stroke="#000000" points="620.5101,-160.5001 630.51,-157 620.51,-153.5001 620.5101,-160.5001"/>
</g>
<!-- NbResetPasswordComponent -->
<g id="node6" class="node">
<title>NbResetPasswordComponent</title>
<polygon fill="#ffffb3" stroke="#000000" points="377.6937,-122 194.3063,-122 194.3063,-86 377.6937,-86 377.6937,-122"/>
<text text-anchor="middle" x="286" y="-99.8" font-family="Times,serif" font-size="14.00" fill="#000000">NbResetPasswordComponent</text>
</g>
<!-- NbResetPasswordComponent&#45;&gt;NbAuthModule -->
<g id="edge6" class="edge">
<title>NbResetPasswordComponent&#45;&gt;NbAuthModule</title>
<path fill="none" stroke="#000000" d="M312.3656,-122.0336C312.3656,-139.0597 312.3656,-162 312.3656,-162 312.3656,-162 620.6832,-162 620.6832,-162"/>
<polygon fill="#000000" stroke="#000000" points="620.6833,-165.5001 630.6832,-162 620.6832,-158.5001 620.6833,-165.5001"/>
</g>
<!-- NbLogoutComponent -->
<g id="node7" class="node">
<title>NbLogoutComponent</title>
<polygon fill="#ffffb3" stroke="#000000" points="176.3822,-122 37.6178,-122 37.6178,-86 176.3822,-86 176.3822,-122"/>
<text text-anchor="middle" x="107" y="-99.8" font-family="Times,serif" font-size="14.00" fill="#000000">NbLogoutComponent</text>
</g>
<!-- NbLogoutComponent&#45;&gt;NbAuthModule -->
<g id="edge7" class="edge">
<title>NbLogoutComponent&#45;&gt;NbAuthModule</title>
<path fill="none" stroke="#000000" d="M171.3161,-122.2222C171.3161,-140.8285 171.3161,-167 171.3161,-167 171.3161,-167 620.6455,-167 620.6455,-167"/>
<polygon fill="#000000" stroke="#000000" points="620.6455,-170.5001 630.6455,-167 620.6455,-163.5001 620.6455,-170.5001"/>
</g>
<!-- NbAuthComponent  -->
<g id="node9" class="node">
<title>NbAuthComponent </title>
<polygon fill="#fb8072" stroke="#000000" points="1239.9362,-252 1110.0638,-252 1110.0638,-216 1239.9362,-216 1239.9362,-252"/>
<text text-anchor="middle" x="1175" y="-229.8" font-family="Times,serif" font-size="14.00" fill="#000000">NbAuthComponent </text>
</g>
<!-- NbAuthModule&#45;&gt;NbAuthComponent  -->
<g id="edge8" class="edge">
<title>NbAuthModule&#45;&gt;NbAuthComponent </title>
<path fill="none" stroke="#000000" stroke-dasharray="5,2" d="M735.4318,-172C861.0037,-172 1168.625,-172 1168.625,-172 1168.625,-172 1168.625,-205.7333 1168.625,-205.7333"/>
<polygon fill="#000000" stroke="#000000" points="1165.1251,-205.7333 1168.625,-215.7333 1172.1251,-205.7333 1165.1251,-205.7333"/>
</g>
<!-- NbAuthBlockComponent  -->
<g id="node10" class="node">
<title>NbAuthBlockComponent </title>
<polygon fill="#fb8072" stroke="#000000" points="1091.8784,-252 928.1216,-252 928.1216,-216 1091.8784,-216 1091.8784,-252"/>
<text text-anchor="middle" x="1010" y="-229.8" font-family="Times,serif" font-size="14.00" fill="#000000">NbAuthBlockComponent </text>
</g>
<!-- NbAuthModule&#45;&gt;NbAuthBlockComponent  -->
<g id="edge9" class="edge">
<title>NbAuthModule&#45;&gt;NbAuthBlockComponent </title>
<path fill="none" stroke="#000000" stroke-dasharray="5,2" d="M735.3881,-177C820.609,-177 979.8537,-177 979.8537,-177 979.8537,-177 979.8537,-205.9648 979.8537,-205.9648"/>
<polygon fill="#000000" stroke="#000000" points="976.3538,-205.9648 979.8537,-215.9648 983.3538,-205.9649 976.3538,-205.9648"/>
</g>
<!-- NbLoginComponent  -->
<g id="node11" class="node">
<title>NbLoginComponent </title>
<polygon fill="#fb8072" stroke="#000000" points="910.8827,-252 775.1173,-252 775.1173,-216 910.8827,-216 910.8827,-252"/>
<text text-anchor="middle" x="843" y="-229.8" font-family="Times,serif" font-size="14.00" fill="#000000">NbLoginComponent </text>
</g>
<!-- NbAuthModule&#45;&gt;NbLoginComponent  -->
<g id="edge10" class="edge">
<title>NbAuthModule&#45;&gt;NbLoginComponent </title>
<path fill="none" stroke="#000000" stroke-dasharray="5,2" d="M735.3954,-182C773.5306,-182 818.5196,-182 818.5196,-182 818.5196,-182 818.5196,-205.8129 818.5196,-205.8129"/>
<polygon fill="#000000" stroke="#000000" points="815.0197,-205.8129 818.5196,-215.8129 822.0197,-205.813 815.0197,-205.8129"/>
</g>
<!-- NbRegisterComponent  -->
<g id="node12" class="node">
<title>NbRegisterComponent </title>
<polygon fill="#fb8072" stroke="#000000" points="757.0918,-252 608.9082,-252 608.9082,-216 757.0918,-216 757.0918,-252"/>
<text text-anchor="middle" x="683" y="-229.8" font-family="Times,serif" font-size="14.00" fill="#000000">NbRegisterComponent </text>
</g>
<!-- NbAuthModule&#45;&gt;NbRegisterComponent  -->
<g id="edge11" class="edge">
<title>NbAuthModule&#45;&gt;NbRegisterComponent </title>
<path fill="none" stroke="#000000" stroke-dasharray="5,2" d="M683,-187.1061C683,-187.1061 683,-205.991 683,-205.991"/>
<polygon fill="#000000" stroke="#000000" points="679.5001,-205.9909 683,-215.991 686.5001,-205.991 679.5001,-205.9909"/>
</g>
<!-- NbRequestPasswordComponent  -->
<g id="node13" class="node">
<title>NbRequestPasswordComponent </title>
<polygon fill="#fb8072" stroke="#000000" points="590.1938,-252 389.8062,-252 389.8062,-216 590.1938,-216 590.1938,-252"/>
<text text-anchor="middle" x="490" y="-229.8" font-family="Times,serif" font-size="14.00" fill="#000000">NbRequestPasswordComponent </text>
</g>
<!-- NbAuthModule&#45;&gt;NbRequestPasswordComponent  -->
<g id="edge12" class="edge">
<title>NbAuthModule&#45;&gt;NbRequestPasswordComponent </title>
<path fill="none" stroke="#000000" stroke-dasharray="5,2" d="M630.8065,-182C565.0081,-182 460.3844,-182 460.3844,-182 460.3844,-182 460.3844,-205.8129 460.3844,-205.8129"/>
<polygon fill="#000000" stroke="#000000" points="456.8845,-205.8129 460.3844,-215.8129 463.8845,-205.813 456.8845,-205.8129"/>
</g>
<!-- NbResetPasswordComponent  -->
<g id="node14" class="node">
<title>NbResetPasswordComponent </title>
<polygon fill="#fb8072" stroke="#000000" points="371.1939,-252 184.8061,-252 184.8061,-216 371.1939,-216 371.1939,-252"/>
<text text-anchor="middle" x="278" y="-229.8" font-family="Times,serif" font-size="14.00" fill="#000000">NbResetPasswordComponent </text>
</g>
<!-- NbAuthModule&#45;&gt;NbResetPasswordComponent  -->
<g id="edge13" class="edge">
<title>NbAuthModule&#45;&gt;NbResetPasswordComponent </title>
<path fill="none" stroke="#000000" stroke-dasharray="5,2" d="M630.7502,-177C516.2569,-177 253.3844,-177 253.3844,-177 253.3844,-177 253.3844,-205.9648 253.3844,-205.9648"/>
<polygon fill="#000000" stroke="#000000" points="249.8845,-205.9648 253.3844,-215.9648 256.8845,-205.9649 249.8845,-205.9648"/>
</g>
<!-- NbLogoutComponent  -->
<g id="node15" class="node">
<title>NbLogoutComponent </title>
<polygon fill="#fb8072" stroke="#000000" points="166.3827,-252 23.6173,-252 23.6173,-216 166.3827,-216 166.3827,-252"/>
<text text-anchor="middle" x="95" y="-229.8" font-family="Times,serif" font-size="14.00" fill="#000000">NbLogoutComponent </text>
</g>
<!-- NbAuthModule&#45;&gt;NbLogoutComponent  -->
<g id="edge14" class="edge">
<title>NbAuthModule&#45;&gt;NbLogoutComponent </title>
<path fill="none" stroke="#000000" stroke-dasharray="5,2" d="M630.6611,-172C487.8173,-172 101.875,-172 101.875,-172 101.875,-172 101.875,-205.7333 101.875,-205.7333"/>
<polygon fill="#000000" stroke="#000000" points="98.3751,-205.7333 101.875,-215.7333 105.3751,-205.7333 98.3751,-205.7333"/>
</g>
</g>
</svg>
