<?xml version="1.0" encoding="UTF-8" standalone="no"?>
<!DOCTYPE svg PUBLIC "-//W3C//DTD SVG 1.1//EN"
 "http://www.w3.org/Graphics/SVG/1.1/DTD/svg11.dtd">
<!-- Generated by graphviz version 2.40.1 (20161225.0304)
 -->
<!-- Title: dependencies Pages: 1 -->
<svg width="2287pt" height="284pt"
 viewBox="0.00 0.00 2287.00 284.00" xmlns="http://www.w3.org/2000/svg" xmlns:xlink="http://www.w3.org/1999/xlink">
<g id="graph0" class="graph" transform="scale(1 1) rotate(0) translate(4 280)">
<title>dependencies</title>
<polygon fill="#ffffff" stroke="transparent" points="-4,4 -4,-280 2283,-280 2283,4 -4,4"/>
<text text-anchor="start" x="1118.5091" y="-42.4" font-family="sans-serif" font-weight="bold" font-size="14.00" fill="#000000">Legend</text>
<polygon fill="#ffffb3" stroke="transparent" points="905.5,-10 905.5,-30 925.5,-30 925.5,-10 905.5,-10"/>
<text text-anchor="start" x="929.129" y="-15.4" font-family="sans-serif" font-size="14.00" fill="#000000"> &#160;Declarations</text>
<polygon fill="#8dd3c7" stroke="transparent" points="1018.5,-10 1018.5,-30 1038.5,-30 1038.5,-10 1018.5,-10"/>
<text text-anchor="start" x="1042.2251" y="-15.4" font-family="sans-serif" font-size="14.00" fill="#000000"> &#160;Module</text>
<polygon fill="#80b1d3" stroke="transparent" points="1104.5,-10 1104.5,-30 1124.5,-30 1124.5,-10 1104.5,-10"/>
<text text-anchor="start" x="1128.2812" y="-15.4" font-family="sans-serif" font-size="14.00" fill="#000000"> &#160;Bootstrap</text>
<polygon fill="#fdb462" stroke="transparent" points="1201.5,-10 1201.5,-30 1221.5,-30 1221.5,-10 1201.5,-10"/>
<text text-anchor="start" x="1225.1732" y="-15.4" font-family="sans-serif" font-size="14.00" fill="#000000"> &#160;Providers</text>
<polygon fill="#fb8072" stroke="transparent" points="1297.5,-10 1297.5,-30 1317.5,-30 1317.5,-10 1297.5,-10"/>
<text text-anchor="start" x="1321.2258" y="-15.4" font-family="sans-serif" font-size="14.00" fill="#000000"> &#160;Exports</text>
<g id="clust1" class="cluster">
<title>cluster_ThemeModule</title>
<polygon fill="none" stroke="#000000" stroke-dasharray="1,5" points="8,-70 8,-268 2271,-268 2271,-70 8,-70"/>
</g>
<g id="clust2" class="cluster">
<title>cluster_ThemeModule_declarations</title>
<polygon fill="none" stroke="#000000" points="46,-78 46,-130 2244,-130 2244,-78 46,-78"/>
</g>
<g id="clust18" class="cluster">
<title>cluster_ThemeModule_exports</title>
<polygon fill="none" stroke="#000000" points="16,-208 16,-260 2263,-260 2263,-208 16,-208"/>
</g>
<!-- ThemeSwitcherComponent -->
<g id="node1" class="node">
<title>ThemeSwitcherComponent</title>
<polygon fill="#ffffb3" stroke="#000000" points="2235.965,-122 2066.035,-122 2066.035,-86 2235.965,-86 2235.965,-122"/>
<text text-anchor="middle" x="2151" y="-99.8" font-family="Times,serif" font-size="14.00" fill="#000000">ThemeSwitcherComponent</text>
</g>
<!-- ThemeModule -->
<g id="node15" class="node">
<title>ThemeModule</title>
<polygon fill="#8dd3c7" stroke="#000000" points="1037.4231,-187 1034.4231,-191 1013.4231,-191 1010.4231,-187 938.5769,-187 938.5769,-151 1037.4231,-151 1037.4231,-187"/>
<text text-anchor="middle" x="988" y="-164.8" font-family="Times,serif" font-size="14.00" fill="#000000">ThemeModule</text>
</g>
<!-- ThemeSwitcherComponent&#45;&gt;ThemeModule -->
<g id="edge1" class="edge">
<title>ThemeSwitcherComponent&#45;&gt;ThemeModule</title>
<path fill="none" stroke="#000000" d="M2073.6425,-122.1686C2073.6425,-141.0898 2073.6425,-168 2073.6425,-168 2073.6425,-168 1047.4689,-168 1047.4689,-168"/>
<polygon fill="#000000" stroke="#000000" points="1047.4689,-164.5001 1037.4689,-168 1047.4688,-171.5001 1047.4689,-164.5001"/>
</g>
<!-- HeaderComponent -->
<g id="node2" class="node">
<title>HeaderComponent</title>
<polygon fill="#ffffb3" stroke="#000000" points="2047.7437,-122 1926.2563,-122 1926.2563,-86 2047.7437,-86 2047.7437,-122"/>
<text text-anchor="middle" x="1987" y="-99.8" font-family="Times,serif" font-size="14.00" fill="#000000">HeaderComponent</text>
</g>
<!-- HeaderComponent&#45;&gt;ThemeModule -->
<g id="edge2" class="edge">
<title>HeaderComponent&#45;&gt;ThemeModule</title>
<path fill="none" stroke="#000000" d="M1932.2533,-122.2667C1932.2533,-140.5552 1932.2533,-166 1932.2533,-166 1932.2533,-166 1047.4377,-166 1047.4377,-166"/>
<polygon fill="#000000" stroke="#000000" points="1047.4377,-162.5001 1037.4377,-166 1047.4376,-169.5001 1047.4377,-162.5001"/>
</g>
<!-- FooterComponent -->
<g id="node3" class="node">
<title>FooterComponent</title>
<polygon fill="#ffffb3" stroke="#000000" points="1907.8809,-122 1790.1191,-122 1790.1191,-86 1907.8809,-86 1907.8809,-122"/>
<text text-anchor="middle" x="1849" y="-99.8" font-family="Times,serif" font-size="14.00" fill="#000000">FooterComponent</text>
</g>
<!-- FooterComponent&#45;&gt;ThemeModule -->
<g id="edge3" class="edge">
<title>FooterComponent&#45;&gt;ThemeModule</title>
<path fill="none" stroke="#000000" d="M1794.6846,-122.0225C1794.6846,-139.3734 1794.6846,-163 1794.6846,-163 1794.6846,-163 1047.2474,-163 1047.2474,-163"/>
<polygon fill="#000000" stroke="#000000" points="1047.2474,-159.5001 1037.2474,-163 1047.2474,-166.5001 1047.2474,-159.5001"/>
</g>
<!-- SearchInputComponent -->
<g id="node4" class="node">
<title>SearchInputComponent</title>
<polygon fill="#ffffb3" stroke="#000000" points="1772.4706,-122 1623.5294,-122 1623.5294,-86 1772.4706,-86 1772.4706,-122"/>
<text text-anchor="middle" x="1698" y="-99.8" font-family="Times,serif" font-size="14.00" fill="#000000">SearchInputComponent</text>
</g>
<!-- SearchInputComponent&#45;&gt;ThemeModule -->
<g id="edge4" class="edge">
<title>SearchInputComponent&#45;&gt;ThemeModule</title>
<path fill="none" stroke="#000000" d="M1724.5784,-122.0352C1724.5784,-138.7344 1724.5784,-161 1724.5784,-161 1724.5784,-161 1047.4727,-161 1047.4727,-161"/>
<polygon fill="#000000" stroke="#000000" points="1047.4728,-157.5001 1037.4727,-161 1047.4727,-164.5001 1047.4728,-157.5001"/>
</g>
<!-- ThemeSettingsComponent -->
<g id="node5" class="node">
<title>ThemeSettingsComponent</title>
<polygon fill="#ffffb3" stroke="#000000" points="1605.8187,-122 1440.1813,-122 1440.1813,-86 1605.8187,-86 1605.8187,-122"/>
<text text-anchor="middle" x="1523" y="-99.8" font-family="Times,serif" font-size="14.00" fill="#000000">ThemeSettingsComponent</text>
</g>
<!-- ThemeSettingsComponent&#45;&gt;ThemeModule -->
<g id="edge5" class="edge">
<title>ThemeSettingsComponent&#45;&gt;ThemeModule</title>
<path fill="none" stroke="#000000" d="M1550.9697,-122.0091C1550.9697,-138.0494 1550.9697,-159 1550.9697,-159 1550.9697,-159 1047.4664,-159 1047.4664,-159"/>
<polygon fill="#000000" stroke="#000000" points="1047.4664,-155.5001 1037.4664,-159 1047.4664,-162.5001 1047.4664,-155.5001"/>
</g>
<!-- TinyMCEComponent -->
<g id="node6" class="node">
<title>TinyMCEComponent</title>
<polygon fill="#ffffb3" stroke="#000000" points="1422.1094,-122 1283.8906,-122 1283.8906,-86 1422.1094,-86 1422.1094,-122"/>
<text text-anchor="middle" x="1353" y="-99.8" font-family="Times,serif" font-size="14.00" fill="#000000">TinyMCEComponent</text>
</g>
<!-- TinyMCEComponent&#45;&gt;ThemeModule -->
<g id="edge6" class="edge">
<title>TinyMCEComponent&#45;&gt;ThemeModule</title>
<path fill="none" stroke="#000000" d="M1329.9818,-122.1871C1329.9818,-137.1824 1329.9818,-156 1329.9818,-156 1329.9818,-156 1047.3619,-156 1047.3619,-156"/>
<polygon fill="#000000" stroke="#000000" points="1047.3619,-152.5001 1037.3619,-156 1047.3618,-159.5001 1047.3619,-152.5001"/>
</g>
<!-- OneColumnLayoutComponent -->
<g id="node7" class="node">
<title>OneColumnLayoutComponent</title>
<polygon fill="#ffffb3" stroke="#000000" points="1265.9297,-122 1076.0703,-122 1076.0703,-86 1265.9297,-86 1265.9297,-122"/>
<text text-anchor="middle" x="1171" y="-99.8" font-family="Times,serif" font-size="14.00" fill="#000000">OneColumnLayoutComponent</text>
</g>
<!-- OneColumnLayoutComponent&#45;&gt;ThemeModule -->
<g id="edge7" class="edge">
<title>OneColumnLayoutComponent&#45;&gt;ThemeModule</title>
<path fill="none" stroke="#000000" d="M1139.0118,-122.0511C1139.0118,-136.373 1139.0118,-154 1139.0118,-154 1139.0118,-154 1047.4469,-154 1047.4469,-154"/>
<polygon fill="#000000" stroke="#000000" points="1047.4469,-150.5001 1037.4469,-154 1047.4469,-157.5001 1047.4469,-150.5001"/>
</g>
<!-- SampleLayoutComponent -->
<g id="node8" class="node">
<title>SampleLayoutComponent</title>
<polygon fill="#ffffb3" stroke="#000000" points="1058.4832,-122 895.5168,-122 895.5168,-86 1058.4832,-86 1058.4832,-122"/>
<text text-anchor="middle" x="977" y="-99.8" font-family="Times,serif" font-size="14.00" fill="#000000">SampleLayoutComponent</text>
</g>
<!-- SampleLayoutComponent&#45;&gt;ThemeModule -->
<g id="edge8" class="edge">
<title>SampleLayoutComponent&#45;&gt;ThemeModule</title>
<path fill="none" stroke="#000000" d="M988,-122.1061C988,-122.1061 988,-140.991 988,-140.991"/>
<polygon fill="#000000" stroke="#000000" points="984.5001,-140.9909 988,-150.991 991.5001,-140.991 984.5001,-140.9909"/>
</g>
<!-- ThreeColumnsLayoutComponent -->
<g id="node9" class="node">
<title>ThreeColumnsLayoutComponent</title>
<polygon fill="#ffffb3" stroke="#000000" points="877.1951,-122 672.8049,-122 672.8049,-86 877.1951,-86 877.1951,-122"/>
<text text-anchor="middle" x="775" y="-99.8" font-family="Times,serif" font-size="14.00" fill="#000000">ThreeColumnsLayoutComponent</text>
</g>
<!-- ThreeColumnsLayoutComponent&#45;&gt;ThemeModule -->
<g id="edge9" class="edge">
<title>ThreeColumnsLayoutComponent&#45;&gt;ThemeModule</title>
<path fill="none" stroke="#000000" d="M872.9725,-122.0511C872.9725,-136.373 872.9725,-154 872.9725,-154 872.9725,-154 928.5504,-154 928.5504,-154"/>
<polygon fill="#000000" stroke="#000000" points="928.5505,-157.5001 938.5504,-154 928.5504,-150.5001 928.5505,-157.5001"/>
</g>
<!-- TwoColumnsLayoutComponent -->
<g id="node10" class="node">
<title>TwoColumnsLayoutComponent</title>
<polygon fill="#ffffb3" stroke="#000000" points="654.7119,-122 457.2881,-122 457.2881,-86 654.7119,-86 654.7119,-122"/>
<text text-anchor="middle" x="556" y="-99.8" font-family="Times,serif" font-size="14.00" fill="#000000">TwoColumnsLayoutComponent</text>
</g>
<!-- TwoColumnsLayoutComponent&#45;&gt;ThemeModule -->
<g id="edge10" class="edge">
<title>TwoColumnsLayoutComponent&#45;&gt;ThemeModule</title>
<path fill="none" stroke="#000000" d="M648.9809,-122.2396C648.9809,-137.5706 648.9809,-157 648.9809,-157 648.9809,-157 928.7037,-157 928.7037,-157"/>
<polygon fill="#000000" stroke="#000000" points="928.7037,-160.5001 938.7037,-157 928.7037,-153.5001 928.7037,-160.5001"/>
</g>
<!-- CapitalizePipe -->
<g id="node11" class="node">
<title>CapitalizePipe</title>
<polygon fill="#ffffb3" stroke="#000000" points="439.6458,-122 342.3542,-122 342.3542,-86 439.6458,-86 439.6458,-122"/>
<text text-anchor="middle" x="391" y="-99.8" font-family="Times,serif" font-size="14.00" fill="#000000">CapitalizePipe</text>
</g>
<!-- CapitalizePipe&#45;&gt;ThemeModule -->
<g id="edge11" class="edge">
<title>CapitalizePipe&#45;&gt;ThemeModule</title>
<path fill="none" stroke="#000000" d="M432.1976,-122.027C432.1976,-138.3976 432.1976,-160 432.1976,-160 432.1976,-160 928.6762,-160 928.6762,-160"/>
<polygon fill="#000000" stroke="#000000" points="928.6763,-163.5001 938.6762,-160 928.6762,-156.5001 928.6763,-163.5001"/>
</g>
<!-- PluralPipe -->
<g id="node12" class="node">
<title>PluralPipe</title>
<polygon fill="#ffffb3" stroke="#000000" points="324.3275,-122 249.6725,-122 249.6725,-86 324.3275,-86 324.3275,-122"/>
<text text-anchor="middle" x="287" y="-99.8" font-family="Times,serif" font-size="14.00" fill="#000000">PluralPipe</text>
</g>
<!-- PluralPipe&#45;&gt;ThemeModule -->
<g id="edge12" class="edge">
<title>PluralPipe&#45;&gt;ThemeModule</title>
<path fill="none" stroke="#000000" d="M314.6704,-122.0225C314.6704,-139.3734 314.6704,-163 314.6704,-163 314.6704,-163 928.7613,-163 928.7613,-163"/>
<polygon fill="#000000" stroke="#000000" points="928.7613,-166.5001 938.7613,-163 928.7612,-159.5001 928.7613,-166.5001"/>
</g>
<!-- RoundPipe -->
<g id="node13" class="node">
<title>RoundPipe</title>
<polygon fill="#ffffb3" stroke="#000000" points="232.2247,-122 153.7753,-122 153.7753,-86 232.2247,-86 232.2247,-122"/>
<text text-anchor="middle" x="193" y="-99.8" font-family="Times,serif" font-size="14.00" fill="#000000">RoundPipe</text>
</g>
<!-- RoundPipe&#45;&gt;ThemeModule -->
<g id="edge13" class="edge">
<title>RoundPipe&#45;&gt;ThemeModule</title>
<path fill="none" stroke="#000000" d="M218.9744,-122.302C218.9744,-140.2699 218.9744,-165 218.9744,-165 218.9744,-165 928.7241,-165 928.7241,-165"/>
<polygon fill="#000000" stroke="#000000" points="928.7242,-168.5001 938.7241,-165 928.7241,-161.5001 928.7242,-168.5001"/>
</g>
<!-- TimingPipe -->
<g id="node14" class="node">
<title>TimingPipe</title>
<polygon fill="#ffffb3" stroke="#000000" points="136.1123,-122 53.8877,-122 53.8877,-86 136.1123,-86 136.1123,-122"/>
<text text-anchor="middle" x="95" y="-99.8" font-family="Times,serif" font-size="14.00" fill="#000000">TimingPipe</text>
</g>
<!-- TimingPipe&#45;&gt;ThemeModule -->
<g id="edge14" class="edge">
<title>TimingPipe&#45;&gt;ThemeModule</title>
<path fill="none" stroke="#000000" d="M132.097,-122.1686C132.097,-141.0898 132.097,-168 132.097,-168 132.097,-168 928.5966,-168 928.5966,-168"/>
<polygon fill="#000000" stroke="#000000" points="928.5966,-171.5001 938.5966,-168 928.5966,-164.5001 928.5966,-171.5001"/>
</g>
<!-- ThemeSwitcherComponent  -->
<g id="node16" class="node">
<title>ThemeSwitcherComponent </title>
<polygon fill="#fb8072" stroke="#000000" points="2254.9656,-252 2081.0344,-252 2081.0344,-216 2254.9656,-216 2254.9656,-252"/>
<text text-anchor="middle" x="2168" y="-229.8" font-family="Times,serif" font-size="14.00" fill="#000000">ThemeSwitcherComponent </text>
</g>
<!-- ThemeModule&#45;&gt;ThemeSwitcherComponent  -->
<g id="edge15" class="edge">
<title>ThemeModule&#45;&gt;ThemeSwitcherComponent </title>
<path fill="none" stroke="#000000" stroke-dasharray="5,2" d="M1037.5526,-171C1260.3635,-171 2158.625,-171 2158.625,-171 2158.625,-171 2158.625,-205.7778 2158.625,-205.7778"/>
<polygon fill="#000000" stroke="#000000" points="2155.1251,-205.7778 2158.625,-215.7778 2162.1251,-205.7778 2155.1251,-205.7778"/>
</g>
<!-- HeaderComponent  -->
<g id="node17" class="node">
<title>HeaderComponent </title>
<polygon fill="#fb8072" stroke="#000000" points="2063.7436,-252 1938.2564,-252 1938.2564,-216 2063.7436,-216 2063.7436,-252"/>
<text text-anchor="middle" x="2001" y="-229.8" font-family="Times,serif" font-size="14.00" fill="#000000">HeaderComponent </text>
</g>
<!-- ThemeModule&#45;&gt;HeaderComponent  -->
<g id="edge16" class="edge">
<title>ThemeModule&#45;&gt;HeaderComponent </title>
<path fill="none" stroke="#000000" stroke-dasharray="5,2" d="M1037.5015,-173C1239.8082,-173 1993.125,-173 1993.125,-173 1993.125,-173 1993.125,-205.698 1993.125,-205.698"/>
<polygon fill="#000000" stroke="#000000" points="1989.6251,-205.698 1993.125,-215.698 1996.6251,-205.698 1989.6251,-205.698"/>
</g>
<!-- FooterComponent  -->
<g id="node18" class="node">
<title>FooterComponent </title>
<polygon fill="#fb8072" stroke="#000000" points="1920.8814,-252 1799.1186,-252 1799.1186,-216 1920.8814,-216 1920.8814,-252"/>
<text text-anchor="middle" x="1860" y="-229.8" font-family="Times,serif" font-size="14.00" fill="#000000">FooterComponent </text>
</g>
<!-- ThemeModule&#45;&gt;FooterComponent  -->
<g id="edge17" class="edge">
<title>ThemeModule&#45;&gt;FooterComponent </title>
<path fill="none" stroke="#000000" stroke-dasharray="5,2" d="M1037.3339,-175C1220.8604,-175 1853.625,-175 1853.625,-175 1853.625,-175 1853.625,-205.9775 1853.625,-205.9775"/>
<polygon fill="#000000" stroke="#000000" points="1850.1251,-205.9774 1853.625,-215.9775 1857.1251,-205.9775 1850.1251,-205.9774"/>
</g>
<!-- SearchInputComponent  -->
<g id="node19" class="node">
<title>SearchInputComponent </title>
<polygon fill="#fb8072" stroke="#000000" points="1781.4713,-252 1628.5287,-252 1628.5287,-216 1781.4713,-216 1781.4713,-252"/>
<text text-anchor="middle" x="1705" y="-229.8" font-family="Times,serif" font-size="14.00" fill="#000000">SearchInputComponent </text>
</g>
<!-- ThemeModule&#45;&gt;SearchInputComponent  -->
<g id="edge18" class="edge">
<title>ThemeModule&#45;&gt;SearchInputComponent </title>
<path fill="none" stroke="#000000" stroke-dasharray="5,2" d="M1037.2512,-178C1194.8714,-178 1676.6716,-178 1676.6716,-178 1676.6716,-178 1676.6716,-205.973 1676.6716,-205.973"/>
<polygon fill="#000000" stroke="#000000" points="1673.1717,-205.973 1676.6716,-215.973 1680.1717,-205.973 1673.1717,-205.973"/>
</g>
<!-- ThemeSettingsComponent  -->
<g id="node20" class="node">
<title>ThemeSettingsComponent </title>
<polygon fill="#fb8072" stroke="#000000" points="1610.3185,-252 1441.6815,-252 1441.6815,-216 1610.3185,-216 1610.3185,-252"/>
<text text-anchor="middle" x="1526" y="-229.8" font-family="Times,serif" font-size="14.00" fill="#000000">ThemeSettingsComponent </text>
</g>
<!-- ThemeModule&#45;&gt;ThemeSettingsComponent  -->
<g id="edge19" class="edge">
<title>ThemeModule&#45;&gt;ThemeSettingsComponent </title>
<path fill="none" stroke="#000000" stroke-dasharray="5,2" d="M1037.6615,-180C1165.558,-180 1496.2803,-180 1496.2803,-180 1496.2803,-180 1496.2803,-205.7181 1496.2803,-205.7181"/>
<polygon fill="#000000" stroke="#000000" points="1492.7804,-205.718 1496.2803,-215.7181 1499.7804,-205.7181 1492.7804,-205.718"/>
</g>
<!-- TinyMCEComponent  -->
<g id="node21" class="node">
<title>TinyMCEComponent </title>
<polygon fill="#fb8072" stroke="#000000" points="1423.6099,-252 1282.3901,-252 1282.3901,-216 1423.6099,-216 1423.6099,-252"/>
<text text-anchor="middle" x="1353" y="-229.8" font-family="Times,serif" font-size="14.00" fill="#000000">TinyMCEComponent </text>
</g>
<!-- ThemeModule&#45;&gt;TinyMCEComponent  -->
<g id="edge20" class="edge">
<title>ThemeModule&#45;&gt;TinyMCEComponent </title>
<path fill="none" stroke="#000000" stroke-dasharray="5,2" d="M1037.5369,-183C1142.1418,-183 1376.0182,-183 1376.0182,-183 1376.0182,-183 1376.0182,-205.8757 1376.0182,-205.8757"/>
<polygon fill="#000000" stroke="#000000" points="1372.5183,-205.8757 1376.0182,-215.8757 1379.5183,-205.8757 1372.5183,-205.8757"/>
</g>
<!-- OneColumnLayoutComponent  -->
<g id="node22" class="node">
<title>OneColumnLayoutComponent </title>
<polygon fill="#fb8072" stroke="#000000" points="1264.4292,-252 1071.5708,-252 1071.5708,-216 1264.4292,-216 1264.4292,-252"/>
<text text-anchor="middle" x="1168" y="-229.8" font-family="Times,serif" font-size="14.00" fill="#000000">OneColumnLayoutComponent </text>
</g>
<!-- ThemeModule&#45;&gt;OneColumnLayoutComponent  -->
<g id="edge21" class="edge">
<title>ThemeModule&#45;&gt;OneColumnLayoutComponent </title>
<path fill="none" stroke="#000000" stroke-dasharray="5,2" d="M1037.3042,-185C1100.4263,-185 1201.7382,-185 1201.7382,-185 1201.7382,-185 1201.7382,-205.7542 1201.7382,-205.7542"/>
<polygon fill="#000000" stroke="#000000" points="1198.2383,-205.7542 1201.7382,-215.7542 1205.2383,-205.7542 1198.2383,-205.7542"/>
</g>
<!-- SampleLayoutComponent  -->
<g id="node23" class="node">
<title>SampleLayoutComponent </title>
<polygon fill="#fb8072" stroke="#000000" points="1053.4839,-252 886.5161,-252 886.5161,-216 1053.4839,-216 1053.4839,-252"/>
<text text-anchor="middle" x="970" y="-229.8" font-family="Times,serif" font-size="14.00" fill="#000000">SampleLayoutComponent </text>
</g>
<!-- ThemeModule&#45;&gt;SampleLayoutComponent  -->
<g id="edge22" class="edge">
<title>ThemeModule&#45;&gt;SampleLayoutComponent </title>
<path fill="none" stroke="#000000" stroke-dasharray="5,2" d="M988,-187.1061C988,-187.1061 988,-205.991 988,-205.991"/>
<polygon fill="#000000" stroke="#000000" points="984.5001,-205.9909 988,-215.991 991.5001,-205.991 984.5001,-205.9909"/>
</g>
<!-- ThreeColumnsLayoutComponent  -->
<g id="node24" class="node">
<title>ThreeColumnsLayoutComponent </title>
<polygon fill="#fb8072" stroke="#000000" points="868.6952,-252 661.3048,-252 661.3048,-216 868.6952,-216 868.6952,-252"/>
<text text-anchor="middle" x="765" y="-229.8" font-family="Times,serif" font-size="14.00" fill="#000000">ThreeColumnsLayoutComponent </text>
</g>
<!-- ThemeModule&#45;&gt;ThreeColumnsLayoutComponent  -->
<g id="edge23" class="edge">
<title>ThemeModule&#45;&gt;ThreeColumnsLayoutComponent </title>
<path fill="none" stroke="#000000" stroke-dasharray="5,2" d="M938.731,-185C874.67,-185 770.875,-185 770.875,-185 770.875,-185 770.875,-205.7542 770.875,-205.7542"/>
<polygon fill="#000000" stroke="#000000" points="767.3751,-205.7542 770.875,-215.7542 774.3751,-205.7542 767.3751,-205.7542"/>
</g>
<!-- TwoColumnsLayoutComponent  -->
<g id="node25" class="node">
<title>TwoColumnsLayoutComponent </title>
<polygon fill="#fb8072" stroke="#000000" points="643.212,-252 442.788,-252 442.788,-216 643.212,-216 643.212,-252"/>
<text text-anchor="middle" x="543" y="-229.8" font-family="Times,serif" font-size="14.00" fill="#000000">TwoColumnsLayoutComponent </text>
</g>
<!-- ThemeModule&#45;&gt;TwoColumnsLayoutComponent  -->
<g id="edge24" class="edge">
<title>ThemeModule&#45;&gt;TwoColumnsLayoutComponent </title>
<path fill="none" stroke="#000000" stroke-dasharray="5,2" d="M938.6495,-182C824.1995,-182 550.375,-182 550.375,-182 550.375,-182 550.375,-205.8129 550.375,-205.8129"/>
<polygon fill="#000000" stroke="#000000" points="546.8751,-205.8129 550.375,-215.8129 553.8751,-205.813 546.8751,-205.8129"/>
</g>
<!-- CapitalizePipe  -->
<g id="node26" class="node">
<title>CapitalizePipe </title>
<polygon fill="#fb8072" stroke="#000000" points="424.6453,-252 323.3547,-252 323.3547,-216 424.6453,-216 424.6453,-252"/>
<text text-anchor="middle" x="374" y="-229.8" font-family="Times,serif" font-size="14.00" fill="#000000">CapitalizePipe </text>
</g>
<!-- ThemeModule&#45;&gt;CapitalizePipe  -->
<g id="edge25" class="edge">
<title>ThemeModule&#45;&gt;CapitalizePipe </title>
<path fill="none" stroke="#000000" stroke-dasharray="5,2" d="M938.7774,-179C794.6057,-179 383.375,-179 383.375,-179 383.375,-179 383.375,-205.9909 383.375,-205.9909"/>
<polygon fill="#000000" stroke="#000000" points="379.8751,-205.9909 383.375,-215.9909 386.8751,-205.991 379.8751,-205.9909"/>
</g>
<!-- PluralPipe  -->
<g id="node27" class="node">
<title>PluralPipe </title>
<polygon fill="#fb8072" stroke="#000000" points="305.827,-252 228.173,-252 228.173,-216 305.827,-216 305.827,-252"/>
<text text-anchor="middle" x="267" y="-229.8" font-family="Times,serif" font-size="14.00" fill="#000000">PluralPipe </text>
</g>
<!-- ThemeModule&#45;&gt;PluralPipe  -->
<g id="edge26" class="edge">
<title>ThemeModule&#45;&gt;PluralPipe </title>
<path fill="none" stroke="#000000" stroke-dasharray="5,2" d="M938.6292,-176C777.5887,-176 277.875,-176 277.875,-176 277.875,-176 277.875,-205.9664 277.875,-205.9664"/>
<polygon fill="#000000" stroke="#000000" points="274.3751,-205.9663 277.875,-215.9664 281.3751,-205.9664 274.3751,-205.9663"/>
</g>
<!-- RoundPipe  -->
<g id="node28" class="node">
<title>RoundPipe </title>
<polygon fill="#fb8072" stroke="#000000" points="209.7249,-252 128.2751,-252 128.2751,-216 209.7249,-216 209.7249,-252"/>
<text text-anchor="middle" x="169" y="-229.8" font-family="Times,serif" font-size="14.00" fill="#000000">RoundPipe </text>
</g>
<!-- ThemeModule&#45;&gt;RoundPipe  -->
<g id="edge27" class="edge">
<title>ThemeModule&#45;&gt;RoundPipe </title>
<path fill="none" stroke="#000000" stroke-dasharray="5,2" d="M938.7868,-174C763.7651,-174 181.875,-174 181.875,-174 181.875,-174 181.875,-205.998 181.875,-205.998"/>
<polygon fill="#000000" stroke="#000000" points="178.3751,-205.998 181.875,-215.998 185.3751,-205.9981 178.3751,-205.998"/>
</g>
<!-- TimingPipe  -->
<g id="node29" class="node">
<title>TimingPipe </title>
<polygon fill="#fb8072" stroke="#000000" points="109.6131,-252 24.3869,-252 24.3869,-216 109.6131,-216 109.6131,-252"/>
<text text-anchor="middle" x="67" y="-229.8" font-family="Times,serif" font-size="14.00" fill="#000000">TimingPipe </text>
</g>
<!-- ThemeModule&#45;&gt;TimingPipe  -->
<g id="edge28" class="edge">
<title>ThemeModule&#45;&gt;TimingPipe </title>
<path fill="none" stroke="#000000" stroke-dasharray="5,2" d="M938.6393,-171C749.5513,-171 81.875,-171 81.875,-171 81.875,-171 81.875,-205.7778 81.875,-205.7778"/>
<polygon fill="#000000" stroke="#000000" points="78.3751,-205.7778 81.875,-215.7778 85.3751,-205.7778 78.3751,-205.7778"/>
</g>
</g>
</svg>
