<?xml version="1.0" encoding="UTF-8" standalone="no"?>
<!DOCTYPE svg PUBLIC "-//W3C//DTD SVG 1.1//EN"
 "http://www.w3.org/Graphics/SVG/1.1/DTD/svg11.dtd">
<!-- Generated by graphviz version 2.40.1 (20161225.0304)
 -->
<!-- Title: dependencies Pages: 1 -->
<svg width="722pt" height="211pt"
 viewBox="0.00 0.00 722.00 211.00" xmlns="http://www.w3.org/2000/svg" xmlns:xlink="http://www.w3.org/1999/xlink">
<g id="graph0" class="graph" transform="scale(1 1) rotate(0) translate(4 207)">
<title>dependencies</title>
<polygon fill="#ffffff" stroke="transparent" points="-4,4 -4,-207 718,-207 718,4 -4,4"/>
<text text-anchor="start" x="336.0091" y="-42.4" font-family="sans-serif" font-weight="bold" font-size="14.00" fill="#000000">Legend</text>
<polygon fill="#ffffb3" stroke="transparent" points="123,-10 123,-30 143,-30 143,-10 123,-10"/>
<text text-anchor="start" x="146.629" y="-15.4" font-family="sans-serif" font-size="14.00" fill="#000000"> &#160;Declarations</text>
<polygon fill="#8dd3c7" stroke="transparent" points="236,-10 236,-30 256,-30 256,-10 236,-10"/>
<text text-anchor="start" x="259.7251" y="-15.4" font-family="sans-serif" font-size="14.00" fill="#000000"> &#160;Module</text>
<polygon fill="#80b1d3" stroke="transparent" points="322,-10 322,-30 342,-30 342,-10 322,-10"/>
<text text-anchor="start" x="345.7812" y="-15.4" font-family="sans-serif" font-size="14.00" fill="#000000"> &#160;Bootstrap</text>
<polygon fill="#fdb462" stroke="transparent" points="419,-10 419,-30 439,-30 439,-10 419,-10"/>
<text text-anchor="start" x="442.6732" y="-15.4" font-family="sans-serif" font-size="14.00" fill="#000000"> &#160;Providers</text>
<polygon fill="#fb8072" stroke="transparent" points="515,-10 515,-30 535,-30 535,-10 515,-10"/>
<text text-anchor="start" x="538.7258" y="-15.4" font-family="sans-serif" font-size="14.00" fill="#000000"> &#160;Exports</text>
<g id="clust1" class="cluster">
<title>cluster_AdministratorModule</title>
<polygon fill="none" stroke="#000000" stroke-dasharray="1,5" points="8,-70 8,-195 706,-195 706,-70 8,-70"/>
</g>
<g id="clust2" class="cluster">
<title>cluster_AdministratorModule_declarations</title>
<polygon fill="none" stroke="#000000" points="536,-78 536,-130 698,-130 698,-78 536,-78"/>
</g>
<g id="clust4" class="cluster">
<title>cluster_AdministratorModule_imports</title>
<polygon fill="none" stroke="#000000" points="212,-78 212,-130 528,-130 528,-78 212,-78"/>
</g>
<g id="clust7" class="cluster">
<title>cluster_AdministratorModule_providers</title>
<polygon fill="none" stroke="#000000" points="16,-78 16,-130 204,-130 204,-78 16,-78"/>
</g>
<!-- EditcoursesComponent -->
<g id="node1" class="node">
<title>EditcoursesComponent</title>
<polygon fill="#ffffb3" stroke="#000000" points="690.1456,-122 543.8544,-122 543.8544,-86 690.1456,-86 690.1456,-122"/>
<text text-anchor="middle" x="617" y="-99.8" font-family="Times,serif" font-size="14.00" fill="#000000">EditcoursesComponent</text>
</g>
<!-- AdministratorModule -->
<g id="node2" class="node">
<title>AdministratorModule</title>
<polygon fill="#8dd3c7" stroke="#000000" points="460.0898,-187 457.0898,-191 436.0898,-191 433.0898,-187 321.9102,-187 321.9102,-151 460.0898,-151 460.0898,-187"/>
<text text-anchor="middle" x="391" y="-164.8" font-family="Times,serif" font-size="14.00" fill="#000000">AdministratorModule</text>
</g>
<!-- EditcoursesComponent&#45;&gt;AdministratorModule -->
<g id="edge1" class="edge">
<title>EditcoursesComponent&#45;&gt;AdministratorModule</title>
<path fill="none" stroke="#000000" d="M617,-122.1061C617,-141.3391 617,-169 617,-169 617,-169 470.3433,-169 470.3433,-169"/>
<polygon fill="#000000" stroke="#000000" points="470.3434,-165.5001 460.3433,-169 470.3433,-172.5001 470.3434,-165.5001"/>
</g>
<!-- ThemeModule -->
<g id="node3" class="node">
<title>ThemeModule</title>
<polygon fill="#8dd3c7" stroke="#000000" points="520.4231,-122 517.4231,-126 496.4231,-126 493.4231,-122 421.5769,-122 421.5769,-86 520.4231,-86 520.4231,-122"/>
<text text-anchor="middle" x="471" y="-99.8" font-family="Times,serif" font-size="14.00" fill="#000000">ThemeModule</text>
</g>
<!-- ThemeModule&#45;&gt;AdministratorModule -->
<g id="edge2" class="edge">
<title>ThemeModule&#45;&gt;AdministratorModule</title>
<path fill="none" stroke="#000000" d="M440.9169,-122.1061C440.9169,-122.1061 440.9169,-140.991 440.9169,-140.991"/>
<polygon fill="#000000" stroke="#000000" points="437.417,-140.9909 440.9169,-150.991 444.417,-140.991 437.417,-140.9909"/>
</g>
<!-- AdministratorRoutingModule -->
<g id="node4" class="node">
<title>AdministratorRoutingModule</title>
<polygon fill="#8dd3c7" stroke="#000000" points="403.7077,-122 400.7077,-126 379.7077,-126 376.7077,-122 220.2923,-122 220.2923,-86 403.7077,-86 403.7077,-122"/>
<text text-anchor="middle" x="312" y="-99.8" font-family="Times,serif" font-size="14.00" fill="#000000">AdministratorRoutingModule</text>
</g>
<!-- AdministratorRoutingModule&#45;&gt;AdministratorModule -->
<g id="edge3" class="edge">
<title>AdministratorRoutingModule&#45;&gt;AdministratorModule</title>
<path fill="none" stroke="#000000" d="M362.7795,-122.1061C362.7795,-122.1061 362.7795,-140.991 362.7795,-140.991"/>
<polygon fill="#000000" stroke="#000000" points="359.2795,-140.9909 362.7795,-150.991 366.2795,-140.991 359.2795,-140.9909"/>
</g>
<!-- CanActivateAdmin -->
<g id="node5" class="node">
<title>CanActivateAdmin</title>
<ellipse fill="#fdb462" stroke="#000000" cx="110" cy="-104" rx="86.2541" ry="18"/>
<text text-anchor="middle" x="110" y="-99.8" font-family="Times,serif" font-size="14.00" fill="#000000">CanActivateAdmin</text>
</g>
<!-- CanActivateAdmin&#45;&gt;AdministratorModule -->
<g id="edge4" class="edge">
<title>CanActivateAdmin&#45;&gt;AdministratorModule</title>
<path fill="none" stroke="#000000" d="M110,-122.1061C110,-141.3391 110,-169 110,-169 110,-169 311.8998,-169 311.8998,-169"/>
<polygon fill="#000000" stroke="#000000" points="311.8998,-172.5001 321.8998,-169 311.8997,-165.5001 311.8998,-172.5001"/>
</g>
</g>
</svg>
