<?xml version="1.0" encoding="UTF-8" standalone="no"?>
<!DOCTYPE svg PUBLIC "-//W3C//DTD SVG 1.1//EN"
 "http://www.w3.org/Graphics/SVG/1.1/DTD/svg11.dtd">
<!-- Generated by graphviz version 2.40.1 (20161225.0304)
 -->
<!-- Title: dependencies Pages: 1 -->
<svg width="552pt" height="211pt"
 viewBox="0.00 0.00 552.00 211.00" xmlns="http://www.w3.org/2000/svg" xmlns:xlink="http://www.w3.org/1999/xlink">
<g id="graph0" class="graph" transform="scale(1 1) rotate(0) translate(4 207)">
<title>dependencies</title>
<polygon fill="#ffffff" stroke="transparent" points="-4,4 -4,-207 548,-207 548,4 -4,4"/>
<text text-anchor="start" x="251.0091" y="-42.4" font-family="sans-serif" font-weight="bold" font-size="14.00" fill="#000000">Legend</text>
<polygon fill="#ffffb3" stroke="transparent" points="38,-10 38,-30 58,-30 58,-10 38,-10"/>
<text text-anchor="start" x="61.629" y="-15.4" font-family="sans-serif" font-size="14.00" fill="#000000"> &#160;Declarations</text>
<polygon fill="#8dd3c7" stroke="transparent" points="151,-10 151,-30 171,-30 171,-10 151,-10"/>
<text text-anchor="start" x="174.7251" y="-15.4" font-family="sans-serif" font-size="14.00" fill="#000000"> &#160;Module</text>
<polygon fill="#80b1d3" stroke="transparent" points="237,-10 237,-30 257,-30 257,-10 237,-10"/>
<text text-anchor="start" x="260.7812" y="-15.4" font-family="sans-serif" font-size="14.00" fill="#000000"> &#160;Bootstrap</text>
<polygon fill="#fdb462" stroke="transparent" points="334,-10 334,-30 354,-30 354,-10 334,-10"/>
<text text-anchor="start" x="357.6732" y="-15.4" font-family="sans-serif" font-size="14.00" fill="#000000"> &#160;Providers</text>
<polygon fill="#fb8072" stroke="transparent" points="430,-10 430,-30 450,-30 450,-10 430,-10"/>
<text text-anchor="start" x="453.7258" y="-15.4" font-family="sans-serif" font-size="14.00" fill="#000000"> &#160;Exports</text>
<g id="clust1" class="cluster">
<title>cluster_AdministratorModule</title>
<polygon fill="none" stroke="#000000" stroke-dasharray="1,5" points="8,-70 8,-195 536,-195 536,-70 8,-70"/>
</g>
<g id="clust3" class="cluster">
<title>cluster_AdministratorModule_imports</title>
<polygon fill="none" stroke="#000000" points="212,-78 212,-130 528,-130 528,-78 212,-78"/>
</g>
<g id="clust6" class="cluster">
<title>cluster_AdministratorModule_providers</title>
<polygon fill="none" stroke="#000000" points="16,-78 16,-130 204,-130 204,-78 16,-78"/>
</g>
<!-- ThemeModule -->
<g id="node1" class="node">
<title>ThemeModule</title>
<polygon fill="#8dd3c7" stroke="#000000" points="520.4231,-122 517.4231,-126 496.4231,-126 493.4231,-122 421.5769,-122 421.5769,-86 520.4231,-86 520.4231,-122"/>
<text text-anchor="middle" x="471" y="-99.8" font-family="Times,serif" font-size="14.00" fill="#000000">ThemeModule</text>
</g>
<!-- AdministratorModule -->
<g id="node3" class="node">
<title>AdministratorModule</title>
<polygon fill="#8dd3c7" stroke="#000000" points="381.0898,-187 378.0898,-191 357.0898,-191 354.0898,-187 242.9102,-187 242.9102,-151 381.0898,-151 381.0898,-187"/>
<text text-anchor="middle" x="312" y="-164.8" font-family="Times,serif" font-size="14.00" fill="#000000">AdministratorModule</text>
</g>
<!-- ThemeModule&#45;&gt;AdministratorModule -->
<g id="edge1" class="edge">
<title>ThemeModule&#45;&gt;AdministratorModule</title>
<path fill="none" stroke="#000000" d="M471,-122.1061C471,-141.3391 471,-169 471,-169 471,-169 391.2772,-169 391.2772,-169"/>
<polygon fill="#000000" stroke="#000000" points="391.2772,-165.5001 381.2772,-169 391.2771,-172.5001 391.2772,-165.5001"/>
</g>
<!-- AdministratorRoutingModule -->
<g id="node2" class="node">
<title>AdministratorRoutingModule</title>
<polygon fill="#8dd3c7" stroke="#000000" points="403.7077,-122 400.7077,-126 379.7077,-126 376.7077,-122 220.2923,-122 220.2923,-86 403.7077,-86 403.7077,-122"/>
<text text-anchor="middle" x="312" y="-99.8" font-family="Times,serif" font-size="14.00" fill="#000000">AdministratorRoutingModule</text>
</g>
<!-- AdministratorRoutingModule&#45;&gt;AdministratorModule -->
<g id="edge2" class="edge">
<title>AdministratorRoutingModule&#45;&gt;AdministratorModule</title>
<path fill="none" stroke="#000000" d="M312,-122.1061C312,-122.1061 312,-140.991 312,-140.991"/>
<polygon fill="#000000" stroke="#000000" points="308.5001,-140.9909 312,-150.991 315.5001,-140.991 308.5001,-140.9909"/>
</g>
<!-- CanActivateAdmin -->
<g id="node4" class="node">
<title>CanActivateAdmin</title>
<ellipse fill="#fdb462" stroke="#000000" cx="110" cy="-104" rx="86.2541" ry="18"/>
<text text-anchor="middle" x="110" y="-99.8" font-family="Times,serif" font-size="14.00" fill="#000000">CanActivateAdmin</text>
</g>
<!-- CanActivateAdmin&#45;&gt;AdministratorModule -->
<g id="edge3" class="edge">
<title>CanActivateAdmin&#45;&gt;AdministratorModule</title>
<path fill="none" stroke="#000000" d="M110,-122.1061C110,-141.3391 110,-169 110,-169 110,-169 232.7657,-169 232.7657,-169"/>
<polygon fill="#000000" stroke="#000000" points="232.7657,-172.5001 242.7657,-169 232.7656,-165.5001 232.7657,-172.5001"/>
</g>
</g>
</svg>
