<?xml version="1.0" encoding="UTF-8" standalone="no"?>
<!DOCTYPE svg PUBLIC "-//W3C//DTD SVG 1.1//EN"
 "http://www.w3.org/Graphics/SVG/1.1/DTD/svg11.dtd">
<!-- Generated by graphviz version 2.40.1 (20161225.0304)
 -->
<!-- Title: dependencies Pages: 1 -->
<svg width="636pt" height="211pt"
 viewBox="0.00 0.00 636.00 211.00" xmlns="http://www.w3.org/2000/svg" xmlns:xlink="http://www.w3.org/1999/xlink">
<g id="graph0" class="graph" transform="scale(1 1) rotate(0) translate(4 207)">
<title>dependencies</title>
<polygon fill="#ffffff" stroke="transparent" points="-4,4 -4,-207 632,-207 632,4 -4,4"/>
<text text-anchor="start" x="293.0091" y="-42.4" font-family="sans-serif" font-weight="bold" font-size="14.00" fill="#000000">Legend</text>
<polygon fill="#ffffb3" stroke="transparent" points="80,-10 80,-30 100,-30 100,-10 80,-10"/>
<text text-anchor="start" x="103.629" y="-15.4" font-family="sans-serif" font-size="14.00" fill="#000000"> &#160;Declarations</text>
<polygon fill="#8dd3c7" stroke="transparent" points="193,-10 193,-30 213,-30 213,-10 193,-10"/>
<text text-anchor="start" x="216.7251" y="-15.4" font-family="sans-serif" font-size="14.00" fill="#000000"> &#160;Module</text>
<polygon fill="#80b1d3" stroke="transparent" points="279,-10 279,-30 299,-30 299,-10 279,-10"/>
<text text-anchor="start" x="302.7812" y="-15.4" font-family="sans-serif" font-size="14.00" fill="#000000"> &#160;Bootstrap</text>
<polygon fill="#fdb462" stroke="transparent" points="376,-10 376,-30 396,-30 396,-10 376,-10"/>
<text text-anchor="start" x="399.6732" y="-15.4" font-family="sans-serif" font-size="14.00" fill="#000000"> &#160;Providers</text>
<polygon fill="#fb8072" stroke="transparent" points="472,-10 472,-30 492,-30 492,-10 472,-10"/>
<text text-anchor="start" x="495.7258" y="-15.4" font-family="sans-serif" font-size="14.00" fill="#000000"> &#160;Exports</text>
<g id="clust1" class="cluster">
<title>cluster_StudentModule</title>
<polygon fill="none" stroke="#000000" stroke-dasharray="1,5" points="8,-70 8,-195 620,-195 620,-70 8,-70"/>
</g>
<g id="clust2" class="cluster">
<title>cluster_StudentModule_declarations</title>
<polygon fill="none" stroke="#000000" points="442,-78 442,-130 612,-130 612,-78 442,-78"/>
</g>
<g id="clust4" class="cluster">
<title>cluster_StudentModule_imports</title>
<polygon fill="none" stroke="#000000" points="154,-78 154,-130 434,-130 434,-78 154,-78"/>
</g>
<g id="clust7" class="cluster">
<title>cluster_StudentModule_providers</title>
<polygon fill="none" stroke="#000000" points="16,-78 16,-130 146,-130 146,-78 16,-78"/>
</g>
<!-- CartProgressComponent -->
<g id="node1" class="node">
<title>CartProgressComponent</title>
<polygon fill="#ffffb3" stroke="#000000" points="603.6428,-122 450.3572,-122 450.3572,-86 603.6428,-86 603.6428,-122"/>
<text text-anchor="middle" x="527" y="-99.8" font-family="Times,serif" font-size="14.00" fill="#000000">CartProgressComponent</text>
</g>
<!-- StudentModule -->
<g id="node2" class="node">
<title>StudentModule</title>
<polygon fill="#8dd3c7" stroke="#000000" points="357.3287,-187 354.3287,-191 333.3287,-191 330.3287,-187 254.6713,-187 254.6713,-151 357.3287,-151 357.3287,-187"/>
<text text-anchor="middle" x="306" y="-164.8" font-family="Times,serif" font-size="14.00" fill="#000000">StudentModule</text>
</g>
<!-- CartProgressComponent&#45;&gt;StudentModule -->
<g id="edge1" class="edge">
<title>CartProgressComponent&#45;&gt;StudentModule</title>
<path fill="none" stroke="#000000" d="M527,-122.1061C527,-141.3391 527,-169 527,-169 527,-169 367.2573,-169 367.2573,-169"/>
<polygon fill="#000000" stroke="#000000" points="367.2574,-165.5001 357.2573,-169 367.2573,-172.5001 367.2574,-165.5001"/>
</g>
<!-- ThemeModule -->
<g id="node3" class="node">
<title>ThemeModule</title>
<polygon fill="#8dd3c7" stroke="#000000" points="426.4231,-122 423.4231,-126 402.4231,-126 399.4231,-122 327.5769,-122 327.5769,-86 426.4231,-86 426.4231,-122"/>
<text text-anchor="middle" x="377" y="-99.8" font-family="Times,serif" font-size="14.00" fill="#000000">ThemeModule</text>
</g>
<!-- ThemeModule&#45;&gt;StudentModule -->
<g id="edge2" class="edge">
<title>ThemeModule&#45;&gt;StudentModule</title>
<path fill="none" stroke="#000000" d="M342.4765,-122.1061C342.4765,-122.1061 342.4765,-140.991 342.4765,-140.991"/>
<polygon fill="#000000" stroke="#000000" points="338.9766,-140.9909 342.4765,-150.991 345.9766,-140.991 338.9766,-140.9909"/>
</g>
<!-- StudentRoutingModule -->
<g id="node4" class="node">
<title>StudentRoutingModule</title>
<polygon fill="#8dd3c7" stroke="#000000" points="309.9467,-122 306.9467,-126 285.9467,-126 282.9467,-122 162.0533,-122 162.0533,-86 309.9467,-86 309.9467,-122"/>
<text text-anchor="middle" x="236" y="-99.8" font-family="Times,serif" font-size="14.00" fill="#000000">StudentRoutingModule</text>
</g>
<!-- StudentRoutingModule&#45;&gt;StudentModule -->
<g id="edge3" class="edge">
<title>StudentRoutingModule&#45;&gt;StudentModule</title>
<path fill="none" stroke="#000000" d="M282.2795,-122.1061C282.2795,-122.1061 282.2795,-140.991 282.2795,-140.991"/>
<polygon fill="#000000" stroke="#000000" points="278.7795,-140.9909 282.2795,-150.991 285.7795,-140.991 278.7795,-140.9909"/>
</g>
<!-- CartService -->
<g id="node5" class="node">
<title>CartService</title>
<ellipse fill="#fdb462" stroke="#000000" cx="81" cy="-104" rx="56.7348" ry="18"/>
<text text-anchor="middle" x="81" y="-99.8" font-family="Times,serif" font-size="14.00" fill="#000000">CartService</text>
</g>
<!-- CartService&#45;&gt;StudentModule -->
<g id="edge4" class="edge">
<title>CartService&#45;&gt;StudentModule</title>
<path fill="none" stroke="#000000" d="M81,-122.1061C81,-141.3391 81,-169 81,-169 81,-169 244.6625,-169 244.6625,-169"/>
<polygon fill="#000000" stroke="#000000" points="244.6625,-172.5001 254.6625,-169 244.6624,-165.5001 244.6625,-172.5001"/>
</g>
</g>
</svg>
