<?xml version="1.0" encoding="UTF-8" standalone="no"?>
<!DOCTYPE svg PUBLIC "-//W3C//DTD SVG 1.1//EN"
 "http://www.w3.org/Graphics/SVG/1.1/DTD/svg11.dtd">
<!-- Generated by graphviz version 2.40.1 (20161225.0304)
 -->
<!-- Title: dependencies Pages: 1 -->
<svg width="504pt" height="211pt"
 viewBox="0.00 0.00 504.00 211.00" xmlns="http://www.w3.org/2000/svg" xmlns:xlink="http://www.w3.org/1999/xlink">
<g id="graph0" class="graph" transform="scale(1 1) rotate(0) translate(4 207)">
<title>dependencies</title>
<polygon fill="#ffffff" stroke="transparent" points="-4,4 -4,-207 500,-207 500,4 -4,4"/>
<text text-anchor="start" x="227.0091" y="-42.4" font-family="sans-serif" font-weight="bold" font-size="14.00" fill="#000000">Legend</text>
<polygon fill="#ffffb3" stroke="transparent" points="14,-10 14,-30 34,-30 34,-10 14,-10"/>
<text text-anchor="start" x="37.629" y="-15.4" font-family="sans-serif" font-size="14.00" fill="#000000"> &#160;Declarations</text>
<polygon fill="#8dd3c7" stroke="transparent" points="127,-10 127,-30 147,-30 147,-10 127,-10"/>
<text text-anchor="start" x="150.7251" y="-15.4" font-family="sans-serif" font-size="14.00" fill="#000000"> &#160;Module</text>
<polygon fill="#80b1d3" stroke="transparent" points="213,-10 213,-30 233,-30 233,-10 213,-10"/>
<text text-anchor="start" x="236.7812" y="-15.4" font-family="sans-serif" font-size="14.00" fill="#000000"> &#160;Bootstrap</text>
<polygon fill="#fdb462" stroke="transparent" points="310,-10 310,-30 330,-30 330,-10 310,-10"/>
<text text-anchor="start" x="333.6732" y="-15.4" font-family="sans-serif" font-size="14.00" fill="#000000"> &#160;Providers</text>
<polygon fill="#fb8072" stroke="transparent" points="406,-10 406,-30 426,-30 426,-10 406,-10"/>
<text text-anchor="start" x="429.7258" y="-15.4" font-family="sans-serif" font-size="14.00" fill="#000000"> &#160;Exports</text>
<g id="clust1" class="cluster">
<title>cluster_AdvisementModule</title>
<polygon fill="none" stroke="#000000" stroke-dasharray="1,5" points="88,-70 88,-195 408,-195 408,-70 88,-70"/>
</g>
<g id="clust3" class="cluster">
<title>cluster_AdvisementModule_imports</title>
<polygon fill="none" stroke="#000000" points="96,-78 96,-130 400,-130 400,-78 96,-78"/>
</g>
<!-- ThemeModule -->
<g id="node1" class="node">
<title>ThemeModule</title>
<polygon fill="#8dd3c7" stroke="#000000" points="392.4231,-122 389.4231,-126 368.4231,-126 365.4231,-122 293.5769,-122 293.5769,-86 392.4231,-86 392.4231,-122"/>
<text text-anchor="middle" x="343" y="-99.8" font-family="Times,serif" font-size="14.00" fill="#000000">ThemeModule</text>
</g>
<!-- AdvisementModule -->
<g id="node3" class="node">
<title>AdvisementModule</title>
<polygon fill="#8dd3c7" stroke="#000000" points="326.7022,-187 323.7022,-191 302.7022,-191 299.7022,-187 199.2978,-187 199.2978,-151 326.7022,-151 326.7022,-187"/>
<text text-anchor="middle" x="263" y="-164.8" font-family="Times,serif" font-size="14.00" fill="#000000">AdvisementModule</text>
</g>
<!-- ThemeModule&#45;&gt;AdvisementModule -->
<g id="edge1" class="edge">
<title>ThemeModule&#45;&gt;AdvisementModule</title>
<path fill="none" stroke="#000000" d="M310.195,-122.1061C310.195,-122.1061 310.195,-140.991 310.195,-140.991"/>
<polygon fill="#000000" stroke="#000000" points="306.695,-140.9909 310.195,-150.991 313.695,-140.991 306.695,-140.9909"/>
</g>
<!-- AdvisementRoutingModule -->
<g id="node2" class="node">
<title>AdvisementRoutingModule</title>
<polygon fill="#8dd3c7" stroke="#000000" points="276.3201,-122 273.3201,-126 252.3201,-126 249.3201,-122 103.6799,-122 103.6799,-86 276.3201,-86 276.3201,-122"/>
<text text-anchor="middle" x="190" y="-99.8" font-family="Times,serif" font-size="14.00" fill="#000000">AdvisementRoutingModule</text>
</g>
<!-- AdvisementRoutingModule&#45;&gt;AdvisementModule -->
<g id="edge2" class="edge">
<title>AdvisementRoutingModule&#45;&gt;AdvisementModule</title>
<path fill="none" stroke="#000000" d="M237.7795,-122.1061C237.7795,-122.1061 237.7795,-140.991 237.7795,-140.991"/>
<polygon fill="#000000" stroke="#000000" points="234.2795,-140.9909 237.7795,-150.991 241.2795,-140.991 234.2795,-140.9909"/>
</g>
</g>
</svg>
