<?xml version="1.0" encoding="UTF-8" standalone="no"?>
<!DOCTYPE svg PUBLIC "-//W3C//DTD SVG 1.1//EN"
 "http://www.w3.org/Graphics/SVG/1.1/DTD/svg11.dtd">
<!-- Generated by graphviz version 2.40.1 (20161225.0304)
 -->
<!-- Title: dependencies Pages: 1 -->
<svg width="504pt" height="211pt"
 viewBox="0.00 0.00 504.00 211.00" xmlns="http://www.w3.org/2000/svg" xmlns:xlink="http://www.w3.org/1999/xlink">
<g id="graph0" class="graph" transform="scale(1 1) rotate(0) translate(4 207)">
<title>dependencies</title>
<polygon fill="#ffffff" stroke="transparent" points="-4,4 -4,-207 500,-207 500,4 -4,4"/>
<text text-anchor="start" x="227.0091" y="-42.4" font-family="sans-serif" font-weight="bold" font-size="14.00" fill="#000000">Legend</text>
<polygon fill="#ffffb3" stroke="transparent" points="14,-10 14,-30 34,-30 34,-10 14,-10"/>
<text text-anchor="start" x="37.629" y="-15.4" font-family="sans-serif" font-size="14.00" fill="#000000"> &#160;Declarations</text>
<polygon fill="#8dd3c7" stroke="transparent" points="127,-10 127,-30 147,-30 147,-10 127,-10"/>
<text text-anchor="start" x="150.7251" y="-15.4" font-family="sans-serif" font-size="14.00" fill="#000000"> &#160;Module</text>
<polygon fill="#80b1d3" stroke="transparent" points="213,-10 213,-30 233,-30 233,-10 213,-10"/>
<text text-anchor="start" x="236.7812" y="-15.4" font-family="sans-serif" font-size="14.00" fill="#000000"> &#160;Bootstrap</text>
<polygon fill="#fdb462" stroke="transparent" points="310,-10 310,-30 330,-30 330,-10 310,-10"/>
<text text-anchor="start" x="333.6732" y="-15.4" font-family="sans-serif" font-size="14.00" fill="#000000"> &#160;Providers</text>
<polygon fill="#fb8072" stroke="transparent" points="406,-10 406,-30 426,-30 426,-10 406,-10"/>
<text text-anchor="start" x="429.7258" y="-15.4" font-family="sans-serif" font-size="14.00" fill="#000000"> &#160;Exports</text>
<g id="clust1" class="cluster">
<title>cluster_ClassesModule</title>
<polygon fill="none" stroke="#000000" stroke-dasharray="1,5" points="100.5,-70 100.5,-195 395.5,-195 395.5,-70 100.5,-70"/>
</g>
<g id="clust3" class="cluster">
<title>cluster_ClassesModule_imports</title>
<polygon fill="none" stroke="#000000" points="108.5,-78 108.5,-130 387.5,-130 387.5,-78 108.5,-78"/>
</g>
<!-- ThemeModule -->
<g id="node1" class="node">
<title>ThemeModule</title>
<polygon fill="#8dd3c7" stroke="#000000" points="379.9231,-122 376.9231,-126 355.9231,-126 352.9231,-122 281.0769,-122 281.0769,-86 379.9231,-86 379.9231,-122"/>
<text text-anchor="middle" x="330.5" y="-99.8" font-family="Times,serif" font-size="14.00" fill="#000000">ThemeModule</text>
</g>
<!-- ClassesModule -->
<g id="node3" class="node">
<title>ClassesModule</title>
<polygon fill="#8dd3c7" stroke="#000000" points="310.041,-187 307.041,-191 286.041,-191 283.041,-187 208.959,-187 208.959,-151 310.041,-151 310.041,-187"/>
<text text-anchor="middle" x="259.5" y="-164.8" font-family="Times,serif" font-size="14.00" fill="#000000">ClassesModule</text>
</g>
<!-- ThemeModule&#45;&gt;ClassesModule -->
<g id="edge1" class="edge">
<title>ThemeModule&#45;&gt;ClassesModule</title>
<path fill="none" stroke="#000000" d="M295.7795,-122.1061C295.7795,-122.1061 295.7795,-140.991 295.7795,-140.991"/>
<polygon fill="#000000" stroke="#000000" points="292.2795,-140.9909 295.7795,-150.991 299.2795,-140.991 292.2795,-140.9909"/>
</g>
<!-- ClassesRoutingModule -->
<g id="node2" class="node">
<title>ClassesRoutingModule</title>
<polygon fill="#8dd3c7" stroke="#000000" points="262.6582,-122 259.6582,-126 238.6582,-126 235.6582,-122 116.3418,-122 116.3418,-86 262.6582,-86 262.6582,-122"/>
<text text-anchor="middle" x="189.5" y="-99.8" font-family="Times,serif" font-size="14.00" fill="#000000">ClassesRoutingModule</text>
</g>
<!-- ClassesRoutingModule&#45;&gt;ClassesModule -->
<g id="edge2" class="edge">
<title>ClassesRoutingModule&#45;&gt;ClassesModule</title>
<path fill="none" stroke="#000000" d="M235.7795,-122.1061C235.7795,-122.1061 235.7795,-140.991 235.7795,-140.991"/>
<polygon fill="#000000" stroke="#000000" points="232.2795,-140.9909 235.7795,-150.991 239.2795,-140.991 232.2795,-140.9909"/>
</g>
</g>
</svg>
