<?xml version="1.0" encoding="UTF-8" standalone="no"?>
<!DOCTYPE svg PUBLIC "-//W3C//DTD SVG 1.1//EN"
 "http://www.w3.org/Graphics/SVG/1.1/DTD/svg11.dtd">
<!-- Generated by graphviz version 2.40.1 (20161225.0304)
 -->
<!-- Title: dependencies Pages: 1 -->
<svg width="1431pt" height="211pt"
 viewBox="0.00 0.00 1431.00 211.00" xmlns="http://www.w3.org/2000/svg" xmlns:xlink="http://www.w3.org/1999/xlink">
<g id="graph0" class="graph" transform="scale(1 1) rotate(0) translate(4 207)">
<title>dependencies</title>
<polygon fill="#ffffff" stroke="transparent" points="-4,4 -4,-207 1427,-207 1427,4 -4,4"/>
<text text-anchor="start" x="690.5091" y="-42.4" font-family="sans-serif" font-weight="bold" font-size="14.00" fill="#000000">Legend</text>
<polygon fill="#ffffb3" stroke="transparent" points="477.5,-10 477.5,-30 497.5,-30 497.5,-10 477.5,-10"/>
<text text-anchor="start" x="501.129" y="-15.4" font-family="sans-serif" font-size="14.00" fill="#000000"> &#160;Declarations</text>
<polygon fill="#8dd3c7" stroke="transparent" points="590.5,-10 590.5,-30 610.5,-30 610.5,-10 590.5,-10"/>
<text text-anchor="start" x="614.2251" y="-15.4" font-family="sans-serif" font-size="14.00" fill="#000000"> &#160;Module</text>
<polygon fill="#80b1d3" stroke="transparent" points="676.5,-10 676.5,-30 696.5,-30 696.5,-10 676.5,-10"/>
<text text-anchor="start" x="700.2812" y="-15.4" font-family="sans-serif" font-size="14.00" fill="#000000"> &#160;Bootstrap</text>
<polygon fill="#fdb462" stroke="transparent" points="773.5,-10 773.5,-30 793.5,-30 793.5,-10 773.5,-10"/>
<text text-anchor="start" x="797.1732" y="-15.4" font-family="sans-serif" font-size="14.00" fill="#000000"> &#160;Providers</text>
<polygon fill="#fb8072" stroke="transparent" points="869.5,-10 869.5,-30 889.5,-30 889.5,-10 869.5,-10"/>
<text text-anchor="start" x="893.2258" y="-15.4" font-family="sans-serif" font-size="14.00" fill="#000000"> &#160;Exports</text>
<g id="clust1" class="cluster">
<title>cluster_AdvisorModule</title>
<polygon fill="none" stroke="#000000" stroke-dasharray="1,5" points="8,-70 8,-195 1415,-195 1415,-70 8,-70"/>
</g>
<g id="clust2" class="cluster">
<title>cluster_AdvisorModule_declarations</title>
<polygon fill="none" stroke="#000000" points="510,-78 510,-130 1407,-130 1407,-78 510,-78"/>
</g>
<g id="clust8" class="cluster">
<title>cluster_AdvisorModule_imports</title>
<polygon fill="none" stroke="#000000" points="220,-78 220,-130 502,-130 502,-78 220,-78"/>
</g>
<g id="clust11" class="cluster">
<title>cluster_AdvisorModule_providers</title>
<polygon fill="none" stroke="#000000" points="16,-78 16,-130 212,-130 212,-78 16,-78"/>
</g>
<!-- StudentRequestComponent -->
<g id="node1" class="node">
<title>StudentRequestComponent</title>
<polygon fill="#ffffb3" stroke="#000000" points="1398.7119,-122 1229.2881,-122 1229.2881,-86 1398.7119,-86 1398.7119,-122"/>
<text text-anchor="middle" x="1314" y="-99.8" font-family="Times,serif" font-size="14.00" fill="#000000">StudentRequestComponent</text>
</g>
<!-- AdvisorModule -->
<g id="node6" class="node">
<title>AdvisorModule</title>
<polygon fill="#8dd3c7" stroke="#000000" points="749.1528,-187 746.1528,-191 725.1528,-191 722.1528,-187 644.8472,-187 644.8472,-151 749.1528,-151 749.1528,-187"/>
<text text-anchor="middle" x="697" y="-164.8" font-family="Times,serif" font-size="14.00" fill="#000000">AdvisorModule</text>
</g>
<!-- StudentRequestComponent&#45;&gt;AdvisorModule -->
<g id="edge1" class="edge">
<title>StudentRequestComponent&#45;&gt;AdvisorModule</title>
<path fill="none" stroke="#000000" d="M1314,-122.2921C1314,-144.2057 1314,-178 1314,-178 1314,-178 759.3389,-178 759.3389,-178"/>
<polygon fill="#000000" stroke="#000000" points="759.3389,-174.5001 749.3389,-178 759.3389,-181.5001 759.3389,-174.5001"/>
</g>
<!-- AdvisorChatListComponent -->
<g id="node2" class="node">
<title>AdvisorChatListComponent</title>
<polygon fill="#ffffb3" stroke="#000000" points="1211.1553,-122 1036.8447,-122 1036.8447,-86 1211.1553,-86 1211.1553,-122"/>
<text text-anchor="middle" x="1124" y="-99.8" font-family="Times,serif" font-size="14.00" fill="#000000">AdvisorChatListComponent</text>
</g>
<!-- AdvisorChatListComponent&#45;&gt;AdvisorModule -->
<g id="edge2" class="edge">
<title>AdvisorChatListComponent&#45;&gt;AdvisorModule</title>
<path fill="none" stroke="#000000" d="M1124,-122.1061C1124,-141.3391 1124,-169 1124,-169 1124,-169 759.3586,-169 759.3586,-169"/>
<polygon fill="#000000" stroke="#000000" points="759.3586,-165.5001 749.3586,-169 759.3585,-172.5001 759.3586,-165.5001"/>
</g>
<!-- CoursesComponent -->
<g id="node3" class="node">
<title>CoursesComponent</title>
<polygon fill="#ffffb3" stroke="#000000" points="1018.4341,-122 891.5659,-122 891.5659,-86 1018.4341,-86 1018.4341,-122"/>
<text text-anchor="middle" x="955" y="-99.8" font-family="Times,serif" font-size="14.00" fill="#000000">CoursesComponent</text>
</g>
<!-- CoursesComponent&#45;&gt;AdvisorModule -->
<g id="edge3" class="edge">
<title>CoursesComponent&#45;&gt;AdvisorModule</title>
<path fill="none" stroke="#000000" d="M955,-122.027C955,-138.3976 955,-160 955,-160 955,-160 759.2101,-160 759.2101,-160"/>
<polygon fill="#000000" stroke="#000000" points="759.2102,-156.5001 749.2101,-160 759.2101,-163.5001 759.2102,-156.5001"/>
</g>
<!-- CurrentClassesComponent -->
<g id="node4" class="node">
<title>CurrentClassesComponent</title>
<polygon fill="#ffffb3" stroke="#000000" points="874.0856,-122 707.9144,-122 707.9144,-86 874.0856,-86 874.0856,-122"/>
<text text-anchor="middle" x="791" y="-99.8" font-family="Times,serif" font-size="14.00" fill="#000000">CurrentClassesComponent</text>
</g>
<!-- CurrentClassesComponent&#45;&gt;AdvisorModule -->
<g id="edge4" class="edge">
<title>CurrentClassesComponent&#45;&gt;AdvisorModule</title>
<path fill="none" stroke="#000000" d="M728.6417,-122.1061C728.6417,-122.1061 728.6417,-140.991 728.6417,-140.991"/>
<polygon fill="#000000" stroke="#000000" points="725.1417,-140.9909 728.6417,-150.991 732.1417,-140.991 725.1417,-140.9909"/>
</g>
<!-- PreviousClassesComponent -->
<g id="node5" class="node">
<title>PreviousClassesComponent</title>
<polygon fill="#ffffb3" stroke="#000000" points="690.3159,-122 517.6841,-122 517.6841,-86 690.3159,-86 690.3159,-122"/>
<text text-anchor="middle" x="604" y="-99.8" font-family="Times,serif" font-size="14.00" fill="#000000">PreviousClassesComponent</text>
</g>
<!-- PreviousClassesComponent&#45;&gt;AdvisorModule -->
<g id="edge5" class="edge">
<title>PreviousClassesComponent&#45;&gt;AdvisorModule</title>
<path fill="none" stroke="#000000" d="M667.4159,-122.1061C667.4159,-122.1061 667.4159,-140.991 667.4159,-140.991"/>
<polygon fill="#000000" stroke="#000000" points="663.9159,-140.9909 667.4159,-150.991 670.9159,-140.991 663.9159,-140.9909"/>
</g>
<!-- ThemeModule -->
<g id="node7" class="node">
<title>ThemeModule</title>
<polygon fill="#8dd3c7" stroke="#000000" points="494.4231,-122 491.4231,-126 470.4231,-126 467.4231,-122 395.5769,-122 395.5769,-86 494.4231,-86 494.4231,-122"/>
<text text-anchor="middle" x="445" y="-99.8" font-family="Times,serif" font-size="14.00" fill="#000000">ThemeModule</text>
</g>
<!-- ThemeModule&#45;&gt;AdvisorModule -->
<g id="edge6" class="edge">
<title>ThemeModule&#45;&gt;AdvisorModule</title>
<path fill="none" stroke="#000000" d="M445,-122.027C445,-138.3976 445,-160 445,-160 445,-160 634.7854,-160 634.7854,-160"/>
<polygon fill="#000000" stroke="#000000" points="634.7855,-163.5001 644.7854,-160 634.7854,-156.5001 634.7855,-163.5001"/>
</g>
<!-- AdvisorRoutingModule -->
<g id="node8" class="node">
<title>AdvisorRoutingModule</title>
<polygon fill="#8dd3c7" stroke="#000000" points="377.7702,-122 374.7702,-126 353.7702,-126 350.7702,-122 228.2298,-122 228.2298,-86 377.7702,-86 377.7702,-122"/>
<text text-anchor="middle" x="303" y="-99.8" font-family="Times,serif" font-size="14.00" fill="#000000">AdvisorRoutingModule</text>
</g>
<!-- AdvisorRoutingModule&#45;&gt;AdvisorModule -->
<g id="edge7" class="edge">
<title>AdvisorRoutingModule&#45;&gt;AdvisorModule</title>
<path fill="none" stroke="#000000" d="M303,-122.1061C303,-141.3391 303,-169 303,-169 303,-169 634.6798,-169 634.6798,-169"/>
<polygon fill="#000000" stroke="#000000" points="634.6799,-172.5001 644.6798,-169 634.6798,-165.5001 634.6799,-172.5001"/>
</g>
<!-- CanActivateAdvisor -->
<g id="node9" class="node">
<title>CanActivateAdvisor</title>
<ellipse fill="#fdb462" stroke="#000000" cx="114" cy="-104" rx="90.3275" ry="18"/>
<text text-anchor="middle" x="114" y="-99.8" font-family="Times,serif" font-size="14.00" fill="#000000">CanActivateAdvisor</text>
</g>
<!-- CanActivateAdvisor&#45;&gt;AdvisorModule -->
<g id="edge8" class="edge">
<title>CanActivateAdvisor&#45;&gt;AdvisorModule</title>
<path fill="none" stroke="#000000" d="M114,-122.2921C114,-144.2057 114,-178 114,-178 114,-178 634.7496,-178 634.7496,-178"/>
<polygon fill="#000000" stroke="#000000" points="634.7496,-181.5001 644.7496,-178 634.7495,-174.5001 634.7496,-181.5001"/>
</g>
</g>
</svg>
