<?xml version="1.0" encoding="UTF-8" standalone="no"?>
<!DOCTYPE svg PUBLIC "-//W3C//DTD SVG 1.1//EN"
 "http://www.w3.org/Graphics/SVG/1.1/DTD/svg11.dtd">
<!-- Generated by graphviz version 2.40.1 (20161225.0304)
 -->
<!-- Title: dependencies Pages: 1 -->
<svg width="708pt" height="211pt"
 viewBox="0.00 0.00 708.00 211.00" xmlns="http://www.w3.org/2000/svg" xmlns:xlink="http://www.w3.org/1999/xlink">
<g id="graph0" class="graph" transform="scale(1 1) rotate(0) translate(4 207)">
<title>dependencies</title>
<polygon fill="#ffffff" stroke="transparent" points="-4,4 -4,-207 704,-207 704,4 -4,4"/>
<text text-anchor="start" x="329.0091" y="-42.4" font-family="sans-serif" font-weight="bold" font-size="14.00" fill="#000000">Legend</text>
<polygon fill="#ffffb3" stroke="transparent" points="116,-10 116,-30 136,-30 136,-10 116,-10"/>
<text text-anchor="start" x="139.629" y="-15.4" font-family="sans-serif" font-size="14.00" fill="#000000"> &#160;Declarations</text>
<polygon fill="#8dd3c7" stroke="transparent" points="229,-10 229,-30 249,-30 249,-10 229,-10"/>
<text text-anchor="start" x="252.7251" y="-15.4" font-family="sans-serif" font-size="14.00" fill="#000000"> &#160;Module</text>
<polygon fill="#80b1d3" stroke="transparent" points="315,-10 315,-30 335,-30 335,-10 315,-10"/>
<text text-anchor="start" x="338.7812" y="-15.4" font-family="sans-serif" font-size="14.00" fill="#000000"> &#160;Bootstrap</text>
<polygon fill="#fdb462" stroke="transparent" points="412,-10 412,-30 432,-30 432,-10 412,-10"/>
<text text-anchor="start" x="435.6732" y="-15.4" font-family="sans-serif" font-size="14.00" fill="#000000"> &#160;Providers</text>
<polygon fill="#fb8072" stroke="transparent" points="508,-10 508,-30 528,-30 528,-10 508,-10"/>
<text text-anchor="start" x="531.7258" y="-15.4" font-family="sans-serif" font-size="14.00" fill="#000000"> &#160;Exports</text>
<g id="clust1" class="cluster">
<title>cluster_PagesModule</title>
<polygon fill="none" stroke="#000000" stroke-dasharray="1,5" points="8,-70 8,-195 692,-195 692,-70 8,-70"/>
</g>
<g id="clust2" class="cluster">
<title>cluster_PagesModule_declarations</title>
<polygon fill="none" stroke="#000000" points="554,-78 554,-130 684,-130 684,-78 554,-78"/>
</g>
<g id="clust4" class="cluster">
<title>cluster_PagesModule_imports</title>
<polygon fill="none" stroke="#000000" points="16,-78 16,-130 546,-130 546,-78 16,-78"/>
</g>
<!-- PagesComponent -->
<g id="node1" class="node">
<title>PagesComponent</title>
<polygon fill="#ffffb3" stroke="#000000" points="675.9888,-122 562.0112,-122 562.0112,-86 675.9888,-86 675.9888,-122"/>
<text text-anchor="middle" x="619" y="-99.8" font-family="Times,serif" font-size="14.00" fill="#000000">PagesComponent</text>
</g>
<!-- PagesModule -->
<g id="node2" class="node">
<title>PagesModule</title>
<polygon fill="#8dd3c7" stroke="#000000" points="379.2064,-187 376.2064,-191 355.2064,-191 352.2064,-187 286.7936,-187 286.7936,-151 379.2064,-151 379.2064,-187"/>
<text text-anchor="middle" x="333" y="-164.8" font-family="Times,serif" font-size="14.00" fill="#000000">PagesModule</text>
</g>
<!-- PagesComponent&#45;&gt;PagesModule -->
<g id="edge1" class="edge">
<title>PagesComponent&#45;&gt;PagesModule</title>
<path fill="none" stroke="#000000" d="M619,-122.2843C619,-143.3211 619,-175 619,-175 619,-175 389.2687,-175 389.2687,-175"/>
<polygon fill="#000000" stroke="#000000" points="389.2687,-171.5001 379.2687,-175 389.2687,-178.5001 389.2687,-171.5001"/>
</g>
<!-- PagesRoutingModule -->
<g id="node3" class="node">
<title>PagesRoutingModule</title>
<polygon fill="#8dd3c7" stroke="#000000" points="537.8244,-122 534.8244,-126 513.8244,-126 510.8244,-122 400.1756,-122 400.1756,-86 537.8244,-86 537.8244,-122"/>
<text text-anchor="middle" x="469" y="-99.8" font-family="Times,serif" font-size="14.00" fill="#000000">PagesRoutingModule</text>
</g>
<!-- PagesRoutingModule&#45;&gt;PagesModule -->
<g id="edge2" class="edge">
<title>PagesRoutingModule&#45;&gt;PagesModule</title>
<path fill="none" stroke="#000000" d="M469,-122.0225C469,-139.3734 469,-163 469,-163 469,-163 389.4231,-163 389.4231,-163"/>
<polygon fill="#000000" stroke="#000000" points="389.4231,-159.5001 379.4231,-163 389.4231,-166.5001 389.4231,-159.5001"/>
</g>
<!-- ThemeModule -->
<g id="node4" class="node">
<title>ThemeModule</title>
<polygon fill="#8dd3c7" stroke="#000000" points="382.4231,-122 379.4231,-126 358.4231,-126 355.4231,-122 283.5769,-122 283.5769,-86 382.4231,-86 382.4231,-122"/>
<text text-anchor="middle" x="333" y="-99.8" font-family="Times,serif" font-size="14.00" fill="#000000">ThemeModule</text>
</g>
<!-- ThemeModule&#45;&gt;PagesModule -->
<g id="edge3" class="edge">
<title>ThemeModule&#45;&gt;PagesModule</title>
<path fill="none" stroke="#000000" d="M333,-122.1061C333,-122.1061 333,-140.991 333,-140.991"/>
<polygon fill="#000000" stroke="#000000" points="329.5001,-140.9909 333,-150.991 336.5001,-140.991 329.5001,-140.9909"/>
</g>
<!-- DashboardModule -->
<g id="node5" class="node">
<title>DashboardModule</title>
<polygon fill="#8dd3c7" stroke="#000000" points="266.191,-122 263.191,-126 242.191,-126 239.191,-122 145.809,-122 145.809,-86 266.191,-86 266.191,-122"/>
<text text-anchor="middle" x="206" y="-99.8" font-family="Times,serif" font-size="14.00" fill="#000000">DashboardModule</text>
</g>
<!-- DashboardModule&#45;&gt;PagesModule -->
<g id="edge4" class="edge">
<title>DashboardModule&#45;&gt;PagesModule</title>
<path fill="none" stroke="#000000" d="M206,-122.0225C206,-139.3734 206,-163 206,-163 206,-163 276.7908,-163 276.7908,-163"/>
<polygon fill="#000000" stroke="#000000" points="276.7909,-166.5001 286.7908,-163 276.7908,-159.5001 276.7909,-166.5001"/>
</g>
<!-- AdvisorModule -->
<g id="node6" class="node">
<title>AdvisorModule</title>
<polygon fill="#8dd3c7" stroke="#000000" points="128.1528,-122 125.1528,-126 104.1528,-126 101.1528,-122 23.8472,-122 23.8472,-86 128.1528,-86 128.1528,-122"/>
<text text-anchor="middle" x="76" y="-99.8" font-family="Times,serif" font-size="14.00" fill="#000000">AdvisorModule</text>
</g>
<!-- AdvisorModule&#45;&gt;PagesModule -->
<g id="edge5" class="edge">
<title>AdvisorModule&#45;&gt;PagesModule</title>
<path fill="none" stroke="#000000" d="M76,-122.2843C76,-143.3211 76,-175 76,-175 76,-175 276.7567,-175 276.7567,-175"/>
<polygon fill="#000000" stroke="#000000" points="276.7568,-178.5001 286.7567,-175 276.7567,-171.5001 276.7568,-178.5001"/>
</g>
</g>
</svg>
