<?xml version="1.0" encoding="UTF-8" standalone="no"?>
<!DOCTYPE svg PUBLIC "-//W3C//DTD SVG 1.1//EN"
 "http://www.w3.org/Graphics/SVG/1.1/DTD/svg11.dtd">
<!-- Generated by graphviz version 2.40.1 (20161225.0304)
 -->
<!-- Title: dependencies Pages: 1 -->
<svg width="847pt" height="211pt"
 viewBox="0.00 0.00 847.00 211.00" xmlns="http://www.w3.org/2000/svg" xmlns:xlink="http://www.w3.org/1999/xlink">
<g id="graph0" class="graph" transform="scale(1 1) rotate(0) translate(4 207)">
<title>dependencies</title>
<polygon fill="#ffffff" stroke="transparent" points="-4,4 -4,-207 843,-207 843,4 -4,4"/>
<text text-anchor="start" x="398.5091" y="-42.4" font-family="sans-serif" font-weight="bold" font-size="14.00" fill="#000000">Legend</text>
<polygon fill="#ffffb3" stroke="transparent" points="185.5,-10 185.5,-30 205.5,-30 205.5,-10 185.5,-10"/>
<text text-anchor="start" x="209.129" y="-15.4" font-family="sans-serif" font-size="14.00" fill="#000000"> &#160;Declarations</text>
<polygon fill="#8dd3c7" stroke="transparent" points="298.5,-10 298.5,-30 318.5,-30 318.5,-10 298.5,-10"/>
<text text-anchor="start" x="322.2251" y="-15.4" font-family="sans-serif" font-size="14.00" fill="#000000"> &#160;Module</text>
<polygon fill="#80b1d3" stroke="transparent" points="384.5,-10 384.5,-30 404.5,-30 404.5,-10 384.5,-10"/>
<text text-anchor="start" x="408.2812" y="-15.4" font-family="sans-serif" font-size="14.00" fill="#000000"> &#160;Bootstrap</text>
<polygon fill="#fdb462" stroke="transparent" points="481.5,-10 481.5,-30 501.5,-30 501.5,-10 481.5,-10"/>
<text text-anchor="start" x="505.1732" y="-15.4" font-family="sans-serif" font-size="14.00" fill="#000000"> &#160;Providers</text>
<polygon fill="#fb8072" stroke="transparent" points="577.5,-10 577.5,-30 597.5,-30 597.5,-10 577.5,-10"/>
<text text-anchor="start" x="601.2258" y="-15.4" font-family="sans-serif" font-size="14.00" fill="#000000"> &#160;Exports</text>
<g id="clust1" class="cluster">
<title>cluster_PagesModule</title>
<polygon fill="none" stroke="#000000" stroke-dasharray="1,5" points="8,-70 8,-195 831,-195 831,-70 8,-70"/>
</g>
<g id="clust2" class="cluster">
<title>cluster_PagesModule_declarations</title>
<polygon fill="none" stroke="#000000" points="693,-78 693,-130 823,-130 823,-78 693,-78"/>
</g>
<g id="clust4" class="cluster">
<title>cluster_PagesModule_imports</title>
<polygon fill="none" stroke="#000000" points="16,-78 16,-130 685,-130 685,-78 16,-78"/>
</g>
<!-- PagesComponent -->
<g id="node1" class="node">
<title>PagesComponent</title>
<polygon fill="#ffffb3" stroke="#000000" points="814.9888,-122 701.0112,-122 701.0112,-86 814.9888,-86 814.9888,-122"/>
<text text-anchor="middle" x="758" y="-99.8" font-family="Times,serif" font-size="14.00" fill="#000000">PagesComponent</text>
</g>
<!-- PagesModule -->
<g id="node2" class="node">
<title>PagesModule</title>
<polygon fill="#8dd3c7" stroke="#000000" points="454.2064,-187 451.2064,-191 430.2064,-191 427.2064,-187 361.7936,-187 361.7936,-151 454.2064,-151 454.2064,-187"/>
<text text-anchor="middle" x="408" y="-164.8" font-family="Times,serif" font-size="14.00" fill="#000000">PagesModule</text>
</g>
<!-- PagesComponent&#45;&gt;PagesModule -->
<g id="edge1" class="edge">
<title>PagesComponent&#45;&gt;PagesModule</title>
<path fill="none" stroke="#000000" d="M758,-122.2843C758,-143.3211 758,-175 758,-175 758,-175 464.1163,-175 464.1163,-175"/>
<polygon fill="#000000" stroke="#000000" points="464.1163,-171.5001 454.1163,-175 464.1163,-178.5001 464.1163,-171.5001"/>
</g>
<!-- PagesRoutingModule -->
<g id="node3" class="node">
<title>PagesRoutingModule</title>
<polygon fill="#8dd3c7" stroke="#000000" points="676.8244,-122 673.8244,-126 652.8244,-126 649.8244,-122 539.1756,-122 539.1756,-86 676.8244,-86 676.8244,-122"/>
<text text-anchor="middle" x="608" y="-99.8" font-family="Times,serif" font-size="14.00" fill="#000000">PagesRoutingModule</text>
</g>
<!-- PagesRoutingModule&#45;&gt;PagesModule -->
<g id="edge2" class="edge">
<title>PagesRoutingModule&#45;&gt;PagesModule</title>
<path fill="none" stroke="#000000" d="M608,-122.0225C608,-139.3734 608,-163 608,-163 608,-163 464.1352,-163 464.1352,-163"/>
<polygon fill="#000000" stroke="#000000" points="464.1352,-159.5001 454.1352,-163 464.1351,-166.5001 464.1352,-159.5001"/>
</g>
<!-- ThemeModule -->
<g id="node4" class="node">
<title>ThemeModule</title>
<polygon fill="#8dd3c7" stroke="#000000" points="521.4231,-122 518.4231,-126 497.4231,-126 494.4231,-122 422.5769,-122 422.5769,-86 521.4231,-86 521.4231,-122"/>
<text text-anchor="middle" x="472" y="-99.8" font-family="Times,serif" font-size="14.00" fill="#000000">ThemeModule</text>
</g>
<!-- ThemeModule&#45;&gt;PagesModule -->
<g id="edge3" class="edge">
<title>ThemeModule&#45;&gt;PagesModule</title>
<path fill="none" stroke="#000000" d="M438.446,-122.1061C438.446,-122.1061 438.446,-140.991 438.446,-140.991"/>
<polygon fill="#000000" stroke="#000000" points="434.9461,-140.9909 438.446,-150.991 441.9461,-140.991 434.9461,-140.9909"/>
</g>
<!-- DashboardModule -->
<g id="node5" class="node">
<title>DashboardModule</title>
<polygon fill="#8dd3c7" stroke="#000000" points="405.191,-122 402.191,-126 381.191,-126 378.191,-122 284.809,-122 284.809,-86 405.191,-86 405.191,-122"/>
<text text-anchor="middle" x="345" y="-99.8" font-family="Times,serif" font-size="14.00" fill="#000000">DashboardModule</text>
</g>
<!-- DashboardModule&#45;&gt;PagesModule -->
<g id="edge4" class="edge">
<title>DashboardModule&#45;&gt;PagesModule</title>
<path fill="none" stroke="#000000" d="M383.4961,-122.1061C383.4961,-122.1061 383.4961,-140.991 383.4961,-140.991"/>
<polygon fill="#000000" stroke="#000000" points="379.9962,-140.9909 383.4961,-150.991 386.9962,-140.991 379.9962,-140.9909"/>
</g>
<!-- ProfileModule -->
<g id="node6" class="node">
<title>ProfileModule</title>
<polygon fill="#8dd3c7" stroke="#000000" points="266.65,-122 263.65,-126 242.65,-126 239.65,-122 169.35,-122 169.35,-86 266.65,-86 266.65,-122"/>
<text text-anchor="middle" x="218" y="-99.8" font-family="Times,serif" font-size="14.00" fill="#000000">ProfileModule</text>
</g>
<!-- ProfileModule&#45;&gt;PagesModule -->
<g id="edge5" class="edge">
<title>ProfileModule&#45;&gt;PagesModule</title>
<path fill="none" stroke="#000000" d="M218,-122.0225C218,-139.3734 218,-163 218,-163 218,-163 351.5208,-163 351.5208,-163"/>
<polygon fill="#000000" stroke="#000000" points="351.5208,-166.5001 361.5208,-163 351.5207,-159.5001 351.5208,-166.5001"/>
</g>
<!-- AdvisementModule -->
<g id="node7" class="node">
<title>AdvisementModule</title>
<polygon fill="#8dd3c7" stroke="#000000" points="151.7022,-122 148.7022,-126 127.7022,-126 124.7022,-122 24.2978,-122 24.2978,-86 151.7022,-86 151.7022,-122"/>
<text text-anchor="middle" x="88" y="-99.8" font-family="Times,serif" font-size="14.00" fill="#000000">AdvisementModule</text>
</g>
<!-- AdvisementModule&#45;&gt;PagesModule -->
<g id="edge6" class="edge">
<title>AdvisementModule&#45;&gt;PagesModule</title>
<path fill="none" stroke="#000000" d="M88,-122.2843C88,-143.3211 88,-175 88,-175 88,-175 351.811,-175 351.811,-175"/>
<polygon fill="#000000" stroke="#000000" points="351.811,-178.5001 361.811,-175 351.811,-171.5001 351.811,-178.5001"/>
</g>
</g>
</svg>
