<?xml version="1.0" encoding="UTF-8" standalone="no"?>
<!DOCTYPE svg PUBLIC "-//W3C//DTD SVG 1.1//EN"
 "http://www.w3.org/Graphics/SVG/1.1/DTD/svg11.dtd">
<!-- Generated by graphviz version 2.40.1 (20161225.0304)
 -->
<!-- Title: dependencies Pages: 1 -->
<svg width="504pt" height="211pt"
 viewBox="0.00 0.00 504.00 211.00" xmlns="http://www.w3.org/2000/svg" xmlns:xlink="http://www.w3.org/1999/xlink">
<g id="graph0" class="graph" transform="scale(1 1) rotate(0) translate(4 207)">
<title>dependencies</title>
<polygon fill="#ffffff" stroke="transparent" points="-4,4 -4,-207 500,-207 500,4 -4,4"/>
<text text-anchor="start" x="227.0091" y="-42.4" font-family="sans-serif" font-weight="bold" font-size="14.00" fill="#000000">Legend</text>
<polygon fill="#ffffb3" stroke="transparent" points="14,-10 14,-30 34,-30 34,-10 14,-10"/>
<text text-anchor="start" x="37.629" y="-15.4" font-family="sans-serif" font-size="14.00" fill="#000000"> &#160;Declarations</text>
<polygon fill="#8dd3c7" stroke="transparent" points="127,-10 127,-30 147,-30 147,-10 127,-10"/>
<text text-anchor="start" x="150.7251" y="-15.4" font-family="sans-serif" font-size="14.00" fill="#000000"> &#160;Module</text>
<polygon fill="#80b1d3" stroke="transparent" points="213,-10 213,-30 233,-30 233,-10 213,-10"/>
<text text-anchor="start" x="236.7812" y="-15.4" font-family="sans-serif" font-size="14.00" fill="#000000"> &#160;Bootstrap</text>
<polygon fill="#fdb462" stroke="transparent" points="310,-10 310,-30 330,-30 330,-10 310,-10"/>
<text text-anchor="start" x="333.6732" y="-15.4" font-family="sans-serif" font-size="14.00" fill="#000000"> &#160;Providers</text>
<polygon fill="#fb8072" stroke="transparent" points="406,-10 406,-30 426,-30 426,-10 406,-10"/>
<text text-anchor="start" x="429.7258" y="-15.4" font-family="sans-serif" font-size="14.00" fill="#000000"> &#160;Exports</text>
<g id="clust1" class="cluster">
<title>cluster_ClassModule</title>
<polygon fill="none" stroke="#000000" stroke-dasharray="1,5" points="106.5,-70 106.5,-195 389.5,-195 389.5,-70 106.5,-70"/>
</g>
<g id="clust3" class="cluster">
<title>cluster_ClassModule_imports</title>
<polygon fill="none" stroke="#000000" points="114.5,-78 114.5,-130 381.5,-130 381.5,-78 114.5,-78"/>
</g>
<!-- ThemeModule -->
<g id="node1" class="node">
<title>ThemeModule</title>
<polygon fill="#8dd3c7" stroke="#000000" points="373.9231,-122 370.9231,-126 349.9231,-126 346.9231,-122 275.0769,-122 275.0769,-86 373.9231,-86 373.9231,-122"/>
<text text-anchor="middle" x="324.5" y="-99.8" font-family="Times,serif" font-size="14.00" fill="#000000">ThemeModule</text>
</g>
<!-- ClassModule -->
<g id="node3" class="node">
<title>ClassModule</title>
<polygon fill="#8dd3c7" stroke="#000000" points="301.3809,-187 298.3809,-191 277.3809,-191 274.3809,-187 211.6191,-187 211.6191,-151 301.3809,-151 301.3809,-187"/>
<text text-anchor="middle" x="256.5" y="-164.8" font-family="Times,serif" font-size="14.00" fill="#000000">ClassModule</text>
</g>
<!-- ThemeModule&#45;&gt;ClassModule -->
<g id="edge1" class="edge">
<title>ThemeModule&#45;&gt;ClassModule</title>
<path fill="none" stroke="#000000" d="M288.3647,-122.1061C288.3647,-122.1061 288.3647,-140.991 288.3647,-140.991"/>
<polygon fill="#000000" stroke="#000000" points="284.8647,-140.9909 288.3647,-150.991 291.8647,-140.991 284.8647,-140.9909"/>
</g>
<!-- ClassRoutingModule -->
<g id="node2" class="node">
<title>ClassRoutingModule</title>
<polygon fill="#8dd3c7" stroke="#000000" points="256.9986,-122 253.9986,-126 232.9986,-126 229.9986,-122 122.0014,-122 122.0014,-86 256.9986,-86 256.9986,-122"/>
<text text-anchor="middle" x="189.5" y="-99.8" font-family="Times,serif" font-size="14.00" fill="#000000">ClassRoutingModule</text>
</g>
<!-- ClassRoutingModule&#45;&gt;ClassModule -->
<g id="edge2" class="edge">
<title>ClassRoutingModule&#45;&gt;ClassModule</title>
<path fill="none" stroke="#000000" d="M234.2795,-122.1061C234.2795,-122.1061 234.2795,-140.991 234.2795,-140.991"/>
<polygon fill="#000000" stroke="#000000" points="230.7795,-140.9909 234.2795,-150.991 237.7795,-140.991 230.7795,-140.9909"/>
</g>
</g>
</svg>
